<mxfile host="Electron" modified="2023-11-17T11:56:09.163Z" agent="Mozilla/5.0 (Windows NT 10.0; Win64; x64) AppleWebKit/537.36 (KHTML, like Gecko) draw.io/22.1.2 Chrome/114.0.5735.289 Electron/25.9.4 Safari/537.36" etag="mt7c6hWDtuc3MiVDBbbI" version="22.1.2" type="device">
  <diagram name="Página-1" id="bE1qTPRhqDWaUx5Q4rBU">
    <mxGraphModel dx="1658" dy="820" grid="1" gridSize="10" guides="1" tooltips="1" connect="1" arrows="1" fold="1" page="1" pageScale="1" pageWidth="827" pageHeight="1169" math="0" shadow="0">
      <root>
        <mxCell id="0" />
        <mxCell id="1" parent="0" />
        <mxCell id="G_RNrpnNhE9t_JsDFZRW-89" style="edgeStyle=orthogonalEdgeStyle;rounded=0;orthogonalLoop=1;jettySize=auto;html=1;exitX=0.25;exitY=1;exitDx=0;exitDy=0;entryX=0;entryY=0.5;entryDx=0;entryDy=0;" parent="1" source="G_RNrpnNhE9t_JsDFZRW-1" target="G_RNrpnNhE9t_JsDFZRW-41" edge="1">
          <mxGeometry relative="1" as="geometry" />
        </mxCell>
        <mxCell id="uV4uesYrBL7UXfZUJ128-16" style="edgeStyle=orthogonalEdgeStyle;rounded=0;orthogonalLoop=1;jettySize=auto;html=1;exitX=0.75;exitY=0;exitDx=0;exitDy=0;entryX=0;entryY=0;entryDx=0;entryDy=0;" parent="1" source="G_RNrpnNhE9t_JsDFZRW-1" target="G_RNrpnNhE9t_JsDFZRW-50" edge="1">
          <mxGeometry relative="1" as="geometry" />
        </mxCell>
        <mxCell id="G_RNrpnNhE9t_JsDFZRW-1" value="ARTÍCULOS" style="rounded=0;whiteSpace=wrap;html=1;" parent="1" vertex="1">
          <mxGeometry x="320" y="40" width="160" height="80" as="geometry" />
        </mxCell>
        <mxCell id="G_RNrpnNhE9t_JsDFZRW-2" value="CONSUMIBLES" style="rounded=0;whiteSpace=wrap;html=1;" parent="1" vertex="1">
          <mxGeometry x="210" y="340" width="120" height="60" as="geometry" />
        </mxCell>
        <mxCell id="G_RNrpnNhE9t_JsDFZRW-91" style="edgeStyle=orthogonalEdgeStyle;rounded=0;orthogonalLoop=1;jettySize=auto;html=1;exitX=0.75;exitY=0;exitDx=0;exitDy=0;entryX=0;entryY=0.5;entryDx=0;entryDy=0;" parent="1" source="G_RNrpnNhE9t_JsDFZRW-3" target="G_RNrpnNhE9t_JsDFZRW-90" edge="1">
          <mxGeometry relative="1" as="geometry" />
        </mxCell>
        <mxCell id="G_RNrpnNhE9t_JsDFZRW-97" value="" style="edgeStyle=orthogonalEdgeStyle;rounded=0;orthogonalLoop=1;jettySize=auto;html=1;" parent="1" source="uV4uesYrBL7UXfZUJ128-1" target="G_RNrpnNhE9t_JsDFZRW-96" edge="1">
          <mxGeometry relative="1" as="geometry" />
        </mxCell>
        <mxCell id="uV4uesYrBL7UXfZUJ128-9" style="edgeStyle=orthogonalEdgeStyle;rounded=0;orthogonalLoop=1;jettySize=auto;html=1;exitX=0.75;exitY=0;exitDx=0;exitDy=0;entryX=0;entryY=0.5;entryDx=0;entryDy=0;" parent="1" source="G_RNrpnNhE9t_JsDFZRW-3" target="uV4uesYrBL7UXfZUJ128-8" edge="1">
          <mxGeometry relative="1" as="geometry" />
        </mxCell>
        <mxCell id="uV4uesYrBL7UXfZUJ128-12" style="edgeStyle=orthogonalEdgeStyle;rounded=0;orthogonalLoop=1;jettySize=auto;html=1;exitX=0.25;exitY=1;exitDx=0;exitDy=0;entryX=0.5;entryY=0;entryDx=0;entryDy=0;" parent="1" source="G_RNrpnNhE9t_JsDFZRW-3" target="uV4uesYrBL7UXfZUJ128-11" edge="1">
          <mxGeometry relative="1" as="geometry" />
        </mxCell>
        <mxCell id="G_RNrpnNhE9t_JsDFZRW-3" value="MAQUINAS" style="rounded=0;whiteSpace=wrap;html=1;" parent="1" vertex="1">
          <mxGeometry x="350" y="340" width="120" height="60" as="geometry" />
        </mxCell>
        <mxCell id="G_RNrpnNhE9t_JsDFZRW-36" value="" style="shape=requiredInterface;html=1;verticalLabelPosition=bottom;sketch=0;direction=south;" parent="1" vertex="1">
          <mxGeometry x="302.5" y="220" width="65" height="25" as="geometry" />
        </mxCell>
        <mxCell id="G_RNrpnNhE9t_JsDFZRW-86" style="edgeStyle=orthogonalEdgeStyle;rounded=0;orthogonalLoop=1;jettySize=auto;html=1;exitX=1;exitY=0.5;exitDx=0;exitDy=0;entryX=0.5;entryY=0;entryDx=0;entryDy=0;" parent="1" source="G_RNrpnNhE9t_JsDFZRW-41" target="G_RNrpnNhE9t_JsDFZRW-2" edge="1">
          <mxGeometry relative="1" as="geometry" />
        </mxCell>
        <mxCell id="G_RNrpnNhE9t_JsDFZRW-87" style="edgeStyle=orthogonalEdgeStyle;rounded=0;orthogonalLoop=1;jettySize=auto;html=1;exitX=1;exitY=0.5;exitDx=0;exitDy=0;entryX=0.5;entryY=0;entryDx=0;entryDy=0;" parent="1" source="G_RNrpnNhE9t_JsDFZRW-41" target="G_RNrpnNhE9t_JsDFZRW-3" edge="1">
          <mxGeometry relative="1" as="geometry" />
        </mxCell>
        <mxCell id="G_RNrpnNhE9t_JsDFZRW-41" value="Is a" style="triangle;whiteSpace=wrap;html=1;direction=south;" parent="1" vertex="1">
          <mxGeometry x="295" y="160" width="80" height="60" as="geometry" />
        </mxCell>
        <mxCell id="G_RNrpnNhE9t_JsDFZRW-50" value="&lt;u&gt;Id Art.&lt;/u&gt;" style="ellipse;whiteSpace=wrap;html=1;" parent="1" vertex="1">
          <mxGeometry x="490" y="20" width="120" height="50" as="geometry" />
        </mxCell>
        <mxCell id="G_RNrpnNhE9t_JsDFZRW-90" value="&lt;u&gt;Id.Maquina&lt;/u&gt;" style="ellipse;whiteSpace=wrap;html=1;align=center;" parent="1" vertex="1">
          <mxGeometry x="460" y="280" width="100" height="40" as="geometry" />
        </mxCell>
        <mxCell id="G_RNrpnNhE9t_JsDFZRW-99" value="" style="edgeStyle=orthogonalEdgeStyle;rounded=0;orthogonalLoop=1;jettySize=auto;html=1;" parent="1" source="G_RNrpnNhE9t_JsDFZRW-96" target="G_RNrpnNhE9t_JsDFZRW-98" edge="1">
          <mxGeometry relative="1" as="geometry" />
        </mxCell>
        <mxCell id="G_RNrpnNhE9t_JsDFZRW-96" value="CONTRATO&lt;br&gt;MANTENIMIENTO" style="whiteSpace=wrap;html=1;rounded=0;" parent="1" vertex="1">
          <mxGeometry x="670" y="340" width="110" height="60" as="geometry" />
        </mxCell>
        <mxCell id="G_RNrpnNhE9t_JsDFZRW-98" value="&lt;u&gt;Id_mant&lt;/u&gt;" style="ellipse;whiteSpace=wrap;html=1;rounded=0;" parent="1" vertex="1">
          <mxGeometry x="700" y="280" width="95" height="40" as="geometry" />
        </mxCell>
        <mxCell id="G_RNrpnNhE9t_JsDFZRW-105" style="edgeStyle=orthogonalEdgeStyle;rounded=0;orthogonalLoop=1;jettySize=auto;html=1;exitX=0.75;exitY=0;exitDx=0;exitDy=0;entryX=0.5;entryY=1;entryDx=0;entryDy=0;" parent="1" source="G_RNrpnNhE9t_JsDFZRW-100" target="G_RNrpnNhE9t_JsDFZRW-104" edge="1">
          <mxGeometry relative="1" as="geometry" />
        </mxCell>
        <mxCell id="G_RNrpnNhE9t_JsDFZRW-110" style="edgeStyle=orthogonalEdgeStyle;rounded=0;orthogonalLoop=1;jettySize=auto;html=1;exitX=0;exitY=0.5;exitDx=0;exitDy=0;entryX=1;entryY=0.5;entryDx=0;entryDy=0;" parent="1" source="G_RNrpnNhE9t_JsDFZRW-100" target="G_RNrpnNhE9t_JsDFZRW-107" edge="1">
          <mxGeometry relative="1" as="geometry" />
        </mxCell>
        <mxCell id="G_RNrpnNhE9t_JsDFZRW-100" value="CLIENTE" style="whiteSpace=wrap;html=1;align=center;" parent="1" vertex="1">
          <mxGeometry x="560" y="555" width="150" height="60" as="geometry" />
        </mxCell>
        <mxCell id="uV4uesYrBL7UXfZUJ128-15" style="edgeStyle=orthogonalEdgeStyle;rounded=0;orthogonalLoop=1;jettySize=auto;html=1;exitX=0.5;exitY=1;exitDx=0;exitDy=0;entryX=0.25;entryY=0;entryDx=0;entryDy=0;" parent="1" source="G_RNrpnNhE9t_JsDFZRW-101" target="G_RNrpnNhE9t_JsDFZRW-100" edge="1">
          <mxGeometry relative="1" as="geometry" />
        </mxCell>
        <mxCell id="G_RNrpnNhE9t_JsDFZRW-101" value="Comprar" style="shape=rhombus;perimeter=rhombusPerimeter;whiteSpace=wrap;html=1;align=center;" parent="1" vertex="1">
          <mxGeometry x="610" y="430" width="100" height="60" as="geometry" />
        </mxCell>
        <mxCell id="G_RNrpnNhE9t_JsDFZRW-104" value="&lt;u&gt;Id_Cli&lt;/u&gt;" style="ellipse;whiteSpace=wrap;html=1;align=center;" parent="1" vertex="1">
          <mxGeometry x="710" y="530" width="100" height="40" as="geometry" />
        </mxCell>
        <mxCell id="G_RNrpnNhE9t_JsDFZRW-114" style="edgeStyle=orthogonalEdgeStyle;rounded=0;orthogonalLoop=1;jettySize=auto;html=1;exitX=0.25;exitY=1;exitDx=0;exitDy=0;entryX=0.5;entryY=0;entryDx=0;entryDy=0;" parent="1" source="G_RNrpnNhE9t_JsDFZRW-106" target="G_RNrpnNhE9t_JsDFZRW-113" edge="1">
          <mxGeometry relative="1" as="geometry" />
        </mxCell>
        <mxCell id="G_RNrpnNhE9t_JsDFZRW-106" value="orden&lt;br&gt;REPARACIONES" style="whiteSpace=wrap;html=1;align=center;" parent="1" vertex="1">
          <mxGeometry x="30" y="615" width="135" height="60" as="geometry" />
        </mxCell>
        <mxCell id="uV4uesYrBL7UXfZUJ128-3" style="edgeStyle=orthogonalEdgeStyle;rounded=0;orthogonalLoop=1;jettySize=auto;html=1;exitX=0;exitY=0.5;exitDx=0;exitDy=0;entryX=1;entryY=0.75;entryDx=0;entryDy=0;" parent="1" source="G_RNrpnNhE9t_JsDFZRW-107" target="G_RNrpnNhE9t_JsDFZRW-106" edge="1">
          <mxGeometry relative="1" as="geometry" />
        </mxCell>
        <mxCell id="G_RNrpnNhE9t_JsDFZRW-107" value="CREA" style="shape=rhombus;perimeter=rhombusPerimeter;whiteSpace=wrap;html=1;align=center;" parent="1" vertex="1">
          <mxGeometry x="300" y="612.5" width="120" height="60" as="geometry" />
        </mxCell>
        <mxCell id="G_RNrpnNhE9t_JsDFZRW-113" value="&lt;u&gt;Id. Rep&lt;/u&gt;" style="ellipse;whiteSpace=wrap;html=1;align=center;" parent="1" vertex="1">
          <mxGeometry y="710" width="100" height="40" as="geometry" />
        </mxCell>
        <mxCell id="uV4uesYrBL7UXfZUJ128-2" value="" style="edgeStyle=orthogonalEdgeStyle;rounded=0;orthogonalLoop=1;jettySize=auto;html=1;" parent="1" source="G_RNrpnNhE9t_JsDFZRW-3" target="uV4uesYrBL7UXfZUJ128-1" edge="1">
          <mxGeometry relative="1" as="geometry">
            <mxPoint x="470" y="370" as="sourcePoint" />
            <mxPoint x="670" y="360" as="targetPoint" />
          </mxGeometry>
        </mxCell>
        <mxCell id="uV4uesYrBL7UXfZUJ128-1" value="tiene" style="rhombus;whiteSpace=wrap;html=1;" parent="1" vertex="1">
          <mxGeometry x="530" y="330" width="80" height="80" as="geometry" />
        </mxCell>
        <mxCell id="uV4uesYrBL7UXfZUJ128-6" style="edgeStyle=orthogonalEdgeStyle;rounded=0;orthogonalLoop=1;jettySize=auto;html=1;exitX=0.5;exitY=1;exitDx=0;exitDy=0;entryX=0.5;entryY=0;entryDx=0;entryDy=0;" parent="1" source="uV4uesYrBL7UXfZUJ128-4" target="uV4uesYrBL7UXfZUJ128-5" edge="1">
          <mxGeometry relative="1" as="geometry" />
        </mxCell>
        <mxCell id="uV4uesYrBL7UXfZUJ128-4" value="CENTRO" style="rounded=0;whiteSpace=wrap;html=1;" parent="1" vertex="1">
          <mxGeometry x="30" y="350" width="120" height="60" as="geometry" />
        </mxCell>
        <mxCell id="uV4uesYrBL7UXfZUJ128-5" value="asigna" style="rhombus;whiteSpace=wrap;html=1;" parent="1" vertex="1">
          <mxGeometry x="50" y="450" width="80" height="80" as="geometry" />
        </mxCell>
        <mxCell id="uV4uesYrBL7UXfZUJ128-7" style="edgeStyle=orthogonalEdgeStyle;rounded=0;orthogonalLoop=1;jettySize=auto;html=1;exitX=0.5;exitY=1;exitDx=0;exitDy=0;entryX=0.393;entryY=0.05;entryDx=0;entryDy=0;entryPerimeter=0;" parent="1" source="uV4uesYrBL7UXfZUJ128-5" target="G_RNrpnNhE9t_JsDFZRW-106" edge="1">
          <mxGeometry relative="1" as="geometry" />
        </mxCell>
        <mxCell id="uV4uesYrBL7UXfZUJ128-8" value="Nº serie" style="ellipse;whiteSpace=wrap;html=1;" parent="1" vertex="1">
          <mxGeometry x="470" y="220" width="100" height="52.5" as="geometry" />
        </mxCell>
        <mxCell id="uV4uesYrBL7UXfZUJ128-10" value="Orden&lt;br&gt;REPARACIÓN" style="shape=ext;margin=3;double=1;whiteSpace=wrap;html=1;align=center;" parent="1" vertex="1">
          <mxGeometry x="27.5" y="612.5" width="140" height="65" as="geometry" />
        </mxCell>
        <mxCell id="uV4uesYrBL7UXfZUJ128-13" style="edgeStyle=orthogonalEdgeStyle;rounded=0;orthogonalLoop=1;jettySize=auto;html=1;exitX=0.5;exitY=1;exitDx=0;exitDy=0;entryX=0.75;entryY=0;entryDx=0;entryDy=0;" parent="1" source="uV4uesYrBL7UXfZUJ128-11" target="uV4uesYrBL7UXfZUJ128-10" edge="1">
          <mxGeometry relative="1" as="geometry" />
        </mxCell>
        <mxCell id="uV4uesYrBL7UXfZUJ128-11" value="ASIGNA" style="rhombus;whiteSpace=wrap;html=1;" parent="1" vertex="1">
          <mxGeometry x="250" y="475" width="80" height="80" as="geometry" />
        </mxCell>
        <mxCell id="uV4uesYrBL7UXfZUJ128-14" style="edgeStyle=orthogonalEdgeStyle;rounded=0;orthogonalLoop=1;jettySize=auto;html=1;exitX=0.5;exitY=0;exitDx=0;exitDy=0;entryX=0.445;entryY=1.017;entryDx=0;entryDy=0;entryPerimeter=0;" parent="1" source="G_RNrpnNhE9t_JsDFZRW-101" target="G_RNrpnNhE9t_JsDFZRW-96" edge="1">
          <mxGeometry relative="1" as="geometry" />
        </mxCell>
        <mxCell id="uV4uesYrBL7UXfZUJ128-17" value="1:N" style="text;html=1;align=center;verticalAlign=middle;resizable=0;points=[];autosize=1;strokeColor=none;fillColor=none;" parent="1" vertex="1">
          <mxGeometry x="120" y="478" width="40" height="30" as="geometry" />
        </mxCell>
        <mxCell id="uV4uesYrBL7UXfZUJ128-18" value="(1,1)" style="text;html=1;align=center;verticalAlign=middle;resizable=0;points=[];autosize=1;strokeColor=none;fillColor=none;" parent="1" vertex="1">
          <mxGeometry x="75" y="408" width="50" height="30" as="geometry" />
        </mxCell>
        <mxCell id="uV4uesYrBL7UXfZUJ128-19" value="(0,n)" style="text;html=1;align=center;verticalAlign=middle;resizable=0;points=[];autosize=1;strokeColor=none;fillColor=none;" parent="1" vertex="1">
          <mxGeometry x="45" y="588" width="50" height="30" as="geometry" />
        </mxCell>
        <mxCell id="uV4uesYrBL7UXfZUJ128-20" value="(0,n)" style="text;html=1;align=center;verticalAlign=middle;resizable=0;points=[];autosize=1;strokeColor=none;fillColor=none;" parent="1" vertex="1">
          <mxGeometry x="125" y="588" width="50" height="30" as="geometry" />
        </mxCell>
        <mxCell id="uV4uesYrBL7UXfZUJ128-21" value="(1,1)" style="text;html=1;align=center;verticalAlign=middle;resizable=0;points=[];autosize=1;strokeColor=none;fillColor=none;" parent="1" vertex="1">
          <mxGeometry x="365" y="398" width="50" height="30" as="geometry" />
        </mxCell>
        <mxCell id="uV4uesYrBL7UXfZUJ128-22" value="1:N" style="text;html=1;align=center;verticalAlign=middle;resizable=0;points=[];autosize=1;strokeColor=none;fillColor=none;" parent="1" vertex="1">
          <mxGeometry x="330" y="488" width="40" height="30" as="geometry" />
        </mxCell>
        <mxCell id="uV4uesYrBL7UXfZUJ128-23" value="(1,1)" style="text;html=1;align=center;verticalAlign=middle;resizable=0;points=[];autosize=1;strokeColor=none;fillColor=none;" parent="1" vertex="1">
          <mxGeometry x="525" y="578" width="50" height="30" as="geometry" />
        </mxCell>
        <mxCell id="uV4uesYrBL7UXfZUJ128-24" value="1:N" style="text;html=1;align=center;verticalAlign=middle;resizable=0;points=[];autosize=1;strokeColor=none;fillColor=none;" parent="1" vertex="1">
          <mxGeometry x="330" y="668" width="40" height="30" as="geometry" />
        </mxCell>
        <mxCell id="uV4uesYrBL7UXfZUJ128-25" value="(0,n)" style="text;html=1;align=center;verticalAlign=middle;resizable=0;points=[];autosize=1;strokeColor=none;fillColor=none;" parent="1" vertex="1">
          <mxGeometry x="155" y="658" width="50" height="30" as="geometry" />
        </mxCell>
        <mxCell id="uV4uesYrBL7UXfZUJ128-26" value="(1,n)" style="text;html=1;align=center;verticalAlign=middle;resizable=0;points=[];autosize=1;strokeColor=none;fillColor=none;" parent="1" vertex="1">
          <mxGeometry x="625" y="338" width="50" height="30" as="geometry" />
        </mxCell>
        <mxCell id="iphG7xv198WAp9QWndup-1" value="(1,1)" style="text;html=1;align=center;verticalAlign=middle;resizable=0;points=[];autosize=1;strokeColor=none;fillColor=none;" parent="1" vertex="1">
          <mxGeometry x="455" y="338" width="50" height="30" as="geometry" />
        </mxCell>
        <mxCell id="iphG7xv198WAp9QWndup-2" value="1:N" style="text;html=1;align=center;verticalAlign=middle;resizable=0;points=[];autosize=1;strokeColor=none;fillColor=none;" parent="1" vertex="1">
          <mxGeometry x="550" y="408" width="40" height="30" as="geometry" />
        </mxCell>
        <mxCell id="iphG7xv198WAp9QWndup-3" value="1:N" style="text;html=1;align=center;verticalAlign=middle;resizable=0;points=[];autosize=1;strokeColor=none;fillColor=none;" parent="1" vertex="1">
          <mxGeometry x="710" y="448" width="40" height="30" as="geometry" />
        </mxCell>
        <mxCell id="iphG7xv198WAp9QWndup-4" value="(1,0)" style="text;html=1;align=center;verticalAlign=middle;resizable=0;points=[];autosize=1;strokeColor=none;fillColor=none;" parent="1" vertex="1">
          <mxGeometry x="715" y="398" width="50" height="30" as="geometry" />
        </mxCell>
        <mxCell id="iphG7xv198WAp9QWndup-5" value="(1,1)" style="text;html=1;align=center;verticalAlign=middle;resizable=0;points=[];autosize=1;strokeColor=none;fillColor=none;" parent="1" vertex="1">
          <mxGeometry x="585" y="528" width="50" height="30" as="geometry" />
        </mxCell>
        <mxCell id="iphG7xv198WAp9QWndup-6" value="Centros" style="shape=table;startSize=30;container=1;collapsible=1;childLayout=tableLayout;fixedRows=1;rowLines=0;fontStyle=1;align=center;resizeLast=1;html=1;" parent="1" vertex="1">
          <mxGeometry x="60" y="780" width="180" height="60" as="geometry" />
        </mxCell>
        <mxCell id="iphG7xv198WAp9QWndup-7" value="" style="shape=tableRow;horizontal=0;startSize=0;swimlaneHead=0;swimlaneBody=0;fillColor=none;collapsible=0;dropTarget=0;points=[[0,0.5],[1,0.5]];portConstraint=eastwest;top=0;left=0;right=0;bottom=1;" parent="iphG7xv198WAp9QWndup-6" vertex="1">
          <mxGeometry y="30" width="180" height="30" as="geometry" />
        </mxCell>
        <mxCell id="iphG7xv198WAp9QWndup-8" value="PK" style="shape=partialRectangle;connectable=0;fillColor=none;top=0;left=0;bottom=0;right=0;fontStyle=1;overflow=hidden;whiteSpace=wrap;html=1;" parent="iphG7xv198WAp9QWndup-7" vertex="1">
          <mxGeometry width="30" height="30" as="geometry">
            <mxRectangle width="30" height="30" as="alternateBounds" />
          </mxGeometry>
        </mxCell>
        <mxCell id="iphG7xv198WAp9QWndup-9" value="Id.Centro" style="shape=partialRectangle;connectable=0;fillColor=none;top=0;left=0;bottom=0;right=0;align=left;spacingLeft=6;fontStyle=5;overflow=hidden;whiteSpace=wrap;html=1;" parent="iphG7xv198WAp9QWndup-7" vertex="1">
          <mxGeometry x="30" width="150" height="30" as="geometry">
            <mxRectangle width="150" height="30" as="alternateBounds" />
          </mxGeometry>
        </mxCell>
        <mxCell id="iphG7xv198WAp9QWndup-19" value="Id.Centro" style="ellipse;whiteSpace=wrap;html=1;" parent="1" vertex="1">
          <mxGeometry y="295.5" width="90" height="42.5" as="geometry" />
        </mxCell>
        <mxCell id="iphG7xv198WAp9QWndup-20" value="Ord.Reparacion" style="shape=table;startSize=30;container=1;collapsible=1;childLayout=tableLayout;fixedRows=1;rowLines=0;fontStyle=1;align=center;resizeLast=1;html=1;" parent="1" vertex="1">
          <mxGeometry x="480" y="730" width="180" height="150" as="geometry" />
        </mxCell>
        <mxCell id="iphG7xv198WAp9QWndup-21" value="" style="shape=tableRow;horizontal=0;startSize=0;swimlaneHead=0;swimlaneBody=0;fillColor=none;collapsible=0;dropTarget=0;points=[[0,0.5],[1,0.5]];portConstraint=eastwest;top=0;left=0;right=0;bottom=1;" parent="iphG7xv198WAp9QWndup-20" vertex="1">
          <mxGeometry y="30" width="180" height="30" as="geometry" />
        </mxCell>
        <mxCell id="iphG7xv198WAp9QWndup-22" value="PK" style="shape=partialRectangle;connectable=0;fillColor=none;top=0;left=0;bottom=0;right=0;fontStyle=1;overflow=hidden;whiteSpace=wrap;html=1;" parent="iphG7xv198WAp9QWndup-21" vertex="1">
          <mxGeometry width="50" height="30" as="geometry">
            <mxRectangle width="50" height="30" as="alternateBounds" />
          </mxGeometry>
        </mxCell>
        <mxCell id="iphG7xv198WAp9QWndup-23" value="&lt;i&gt;Id.Reparacion&lt;/i&gt;" style="shape=partialRectangle;connectable=0;fillColor=none;top=0;left=0;bottom=0;right=0;align=left;spacingLeft=6;fontStyle=5;overflow=hidden;whiteSpace=wrap;html=1;" parent="iphG7xv198WAp9QWndup-21" vertex="1">
          <mxGeometry x="50" width="130" height="30" as="geometry">
            <mxRectangle width="130" height="30" as="alternateBounds" />
          </mxGeometry>
        </mxCell>
        <mxCell id="iphG7xv198WAp9QWndup-24" value="" style="shape=tableRow;horizontal=0;startSize=0;swimlaneHead=0;swimlaneBody=0;fillColor=none;collapsible=0;dropTarget=0;points=[[0,0.5],[1,0.5]];portConstraint=eastwest;top=0;left=0;right=0;bottom=0;" parent="iphG7xv198WAp9QWndup-20" vertex="1">
          <mxGeometry y="60" width="180" height="30" as="geometry" />
        </mxCell>
        <mxCell id="iphG7xv198WAp9QWndup-25" value="PK,FK" style="shape=partialRectangle;connectable=0;fillColor=none;top=0;left=0;bottom=0;right=0;editable=1;overflow=hidden;whiteSpace=wrap;html=1;" parent="iphG7xv198WAp9QWndup-24" vertex="1">
          <mxGeometry width="50" height="30" as="geometry">
            <mxRectangle width="50" height="30" as="alternateBounds" />
          </mxGeometry>
        </mxCell>
        <mxCell id="iphG7xv198WAp9QWndup-26" value="&lt;u&gt;Dni&lt;/u&gt;" style="shape=partialRectangle;connectable=0;fillColor=none;top=0;left=0;bottom=0;right=0;align=left;spacingLeft=6;overflow=hidden;whiteSpace=wrap;html=1;" parent="iphG7xv198WAp9QWndup-24" vertex="1">
          <mxGeometry x="50" width="130" height="30" as="geometry">
            <mxRectangle width="130" height="30" as="alternateBounds" />
          </mxGeometry>
        </mxCell>
        <mxCell id="iphG7xv198WAp9QWndup-27" value="" style="shape=tableRow;horizontal=0;startSize=0;swimlaneHead=0;swimlaneBody=0;fillColor=none;collapsible=0;dropTarget=0;points=[[0,0.5],[1,0.5]];portConstraint=eastwest;top=0;left=0;right=0;bottom=0;" parent="iphG7xv198WAp9QWndup-20" vertex="1">
          <mxGeometry y="90" width="180" height="30" as="geometry" />
        </mxCell>
        <mxCell id="iphG7xv198WAp9QWndup-28" value="PK,FK" style="shape=partialRectangle;connectable=0;fillColor=none;top=0;left=0;bottom=0;right=0;editable=1;overflow=hidden;whiteSpace=wrap;html=1;" parent="iphG7xv198WAp9QWndup-27" vertex="1">
          <mxGeometry width="50" height="30" as="geometry">
            <mxRectangle width="50" height="30" as="alternateBounds" />
          </mxGeometry>
        </mxCell>
        <mxCell id="iphG7xv198WAp9QWndup-29" value="&lt;u&gt;Id.Maquina&lt;/u&gt;" style="shape=partialRectangle;connectable=0;fillColor=none;top=0;left=0;bottom=0;right=0;align=left;spacingLeft=6;overflow=hidden;whiteSpace=wrap;html=1;" parent="iphG7xv198WAp9QWndup-27" vertex="1">
          <mxGeometry x="50" width="130" height="30" as="geometry">
            <mxRectangle width="130" height="30" as="alternateBounds" />
          </mxGeometry>
        </mxCell>
        <mxCell id="iphG7xv198WAp9QWndup-30" value="" style="shape=tableRow;horizontal=0;startSize=0;swimlaneHead=0;swimlaneBody=0;fillColor=none;collapsible=0;dropTarget=0;points=[[0,0.5],[1,0.5]];portConstraint=eastwest;top=0;left=0;right=0;bottom=0;" parent="iphG7xv198WAp9QWndup-20" vertex="1">
          <mxGeometry y="120" width="180" height="30" as="geometry" />
        </mxCell>
        <mxCell id="iphG7xv198WAp9QWndup-31" value="FK" style="shape=partialRectangle;connectable=0;fillColor=none;top=0;left=0;bottom=0;right=0;editable=1;overflow=hidden;whiteSpace=wrap;html=1;" parent="iphG7xv198WAp9QWndup-30" vertex="1">
          <mxGeometry width="50" height="30" as="geometry">
            <mxRectangle width="50" height="30" as="alternateBounds" />
          </mxGeometry>
        </mxCell>
        <mxCell id="iphG7xv198WAp9QWndup-32" value="Id.Centro" style="shape=partialRectangle;connectable=0;fillColor=none;top=0;left=0;bottom=0;right=0;align=left;spacingLeft=6;overflow=hidden;whiteSpace=wrap;html=1;" parent="iphG7xv198WAp9QWndup-30" vertex="1">
          <mxGeometry x="50" width="130" height="30" as="geometry">
            <mxRectangle width="130" height="30" as="alternateBounds" />
          </mxGeometry>
        </mxCell>
        <mxCell id="iphG7xv198WAp9QWndup-33" value="Articulos" style="shape=table;startSize=30;container=1;collapsible=1;childLayout=tableLayout;fixedRows=1;rowLines=0;fontStyle=1;align=center;resizeLast=1;html=1;" parent="1" vertex="1">
          <mxGeometry x="250" y="890" width="180" height="60" as="geometry" />
        </mxCell>
        <mxCell id="iphG7xv198WAp9QWndup-34" value="" style="shape=tableRow;horizontal=0;startSize=0;swimlaneHead=0;swimlaneBody=0;fillColor=none;collapsible=0;dropTarget=0;points=[[0,0.5],[1,0.5]];portConstraint=eastwest;top=0;left=0;right=0;bottom=1;" parent="iphG7xv198WAp9QWndup-33" vertex="1">
          <mxGeometry y="30" width="180" height="30" as="geometry" />
        </mxCell>
        <mxCell id="iphG7xv198WAp9QWndup-35" value="PK" style="shape=partialRectangle;connectable=0;fillColor=none;top=0;left=0;bottom=0;right=0;fontStyle=1;overflow=hidden;whiteSpace=wrap;html=1;" parent="iphG7xv198WAp9QWndup-34" vertex="1">
          <mxGeometry width="30" height="30" as="geometry">
            <mxRectangle width="30" height="30" as="alternateBounds" />
          </mxGeometry>
        </mxCell>
        <mxCell id="iphG7xv198WAp9QWndup-36" value="Id.Articulos" style="shape=partialRectangle;connectable=0;fillColor=none;top=0;left=0;bottom=0;right=0;align=left;spacingLeft=6;fontStyle=5;overflow=hidden;whiteSpace=wrap;html=1;" parent="iphG7xv198WAp9QWndup-34" vertex="1">
          <mxGeometry x="30" width="150" height="30" as="geometry">
            <mxRectangle width="150" height="30" as="alternateBounds" />
          </mxGeometry>
        </mxCell>
        <mxCell id="iphG7xv198WAp9QWndup-46" value="Maquinas" style="shape=table;startSize=30;container=1;collapsible=1;childLayout=tableLayout;fixedRows=1;rowLines=0;fontStyle=1;align=center;resizeLast=1;html=1;" parent="1" vertex="1">
          <mxGeometry x="395" y="1000" width="180" height="90" as="geometry" />
        </mxCell>
        <mxCell id="iphG7xv198WAp9QWndup-47" value="" style="shape=tableRow;horizontal=0;startSize=0;swimlaneHead=0;swimlaneBody=0;fillColor=none;collapsible=0;dropTarget=0;points=[[0,0.5],[1,0.5]];portConstraint=eastwest;top=0;left=0;right=0;bottom=1;" parent="iphG7xv198WAp9QWndup-46" vertex="1">
          <mxGeometry y="30" width="180" height="30" as="geometry" />
        </mxCell>
        <mxCell id="iphG7xv198WAp9QWndup-48" value="PK,FK" style="shape=partialRectangle;connectable=0;fillColor=none;top=0;left=0;bottom=0;right=0;fontStyle=1;overflow=hidden;whiteSpace=wrap;html=1;" parent="iphG7xv198WAp9QWndup-47" vertex="1">
          <mxGeometry width="65" height="30" as="geometry">
            <mxRectangle width="65" height="30" as="alternateBounds" />
          </mxGeometry>
        </mxCell>
        <mxCell id="iphG7xv198WAp9QWndup-49" value="Id.Artic" style="shape=partialRectangle;connectable=0;fillColor=none;top=0;left=0;bottom=0;right=0;align=left;spacingLeft=6;fontStyle=5;overflow=hidden;whiteSpace=wrap;html=1;" parent="iphG7xv198WAp9QWndup-47" vertex="1">
          <mxGeometry x="65" width="115" height="30" as="geometry">
            <mxRectangle width="115" height="30" as="alternateBounds" />
          </mxGeometry>
        </mxCell>
        <mxCell id="iphG7xv198WAp9QWndup-50" value="" style="shape=tableRow;horizontal=0;startSize=0;swimlaneHead=0;swimlaneBody=0;fillColor=none;collapsible=0;dropTarget=0;points=[[0,0.5],[1,0.5]];portConstraint=eastwest;top=0;left=0;right=0;bottom=0;" parent="iphG7xv198WAp9QWndup-46" vertex="1">
          <mxGeometry y="60" width="180" height="30" as="geometry" />
        </mxCell>
        <mxCell id="iphG7xv198WAp9QWndup-51" value="" style="shape=partialRectangle;connectable=0;fillColor=none;top=0;left=0;bottom=0;right=0;editable=1;overflow=hidden;whiteSpace=wrap;html=1;" parent="iphG7xv198WAp9QWndup-50" vertex="1">
          <mxGeometry width="65" height="30" as="geometry">
            <mxRectangle width="65" height="30" as="alternateBounds" />
          </mxGeometry>
        </mxCell>
        <mxCell id="iphG7xv198WAp9QWndup-52" value="NºSerie" style="shape=partialRectangle;connectable=0;fillColor=none;top=0;left=0;bottom=0;right=0;align=left;spacingLeft=6;overflow=hidden;whiteSpace=wrap;html=1;" parent="iphG7xv198WAp9QWndup-50" vertex="1">
          <mxGeometry x="65" width="115" height="30" as="geometry">
            <mxRectangle width="115" height="30" as="alternateBounds" />
          </mxGeometry>
        </mxCell>
        <mxCell id="iphG7xv198WAp9QWndup-59" value="Consumibles" style="shape=table;startSize=30;container=1;collapsible=1;childLayout=tableLayout;fixedRows=1;rowLines=0;fontStyle=1;align=center;resizeLast=1;html=1;" parent="1" vertex="1">
          <mxGeometry x="70" y="1000" width="180" height="60" as="geometry" />
        </mxCell>
        <mxCell id="iphG7xv198WAp9QWndup-60" value="" style="shape=tableRow;horizontal=0;startSize=0;swimlaneHead=0;swimlaneBody=0;fillColor=none;collapsible=0;dropTarget=0;points=[[0,0.5],[1,0.5]];portConstraint=eastwest;top=0;left=0;right=0;bottom=1;" parent="iphG7xv198WAp9QWndup-59" vertex="1">
          <mxGeometry y="30" width="180" height="30" as="geometry" />
        </mxCell>
        <mxCell id="iphG7xv198WAp9QWndup-61" value="PK" style="shape=partialRectangle;connectable=0;fillColor=none;top=0;left=0;bottom=0;right=0;fontStyle=1;overflow=hidden;whiteSpace=wrap;html=1;" parent="iphG7xv198WAp9QWndup-60" vertex="1">
          <mxGeometry width="30" height="30" as="geometry">
            <mxRectangle width="30" height="30" as="alternateBounds" />
          </mxGeometry>
        </mxCell>
        <mxCell id="iphG7xv198WAp9QWndup-62" value="Id.ARtic" style="shape=partialRectangle;connectable=0;fillColor=none;top=0;left=0;bottom=0;right=0;align=left;spacingLeft=6;fontStyle=5;overflow=hidden;whiteSpace=wrap;html=1;" parent="iphG7xv198WAp9QWndup-60" vertex="1">
          <mxGeometry x="30" width="150" height="30" as="geometry">
            <mxRectangle width="150" height="30" as="alternateBounds" />
          </mxGeometry>
        </mxCell>
        <mxCell id="iphG7xv198WAp9QWndup-72" value="Cliente" style="shape=table;startSize=30;container=1;collapsible=1;childLayout=tableLayout;fixedRows=1;rowLines=0;fontStyle=1;align=center;resizeLast=1;html=1;" parent="1" vertex="1">
          <mxGeometry x="720" y="690" width="180" height="60" as="geometry" />
        </mxCell>
        <mxCell id="iphG7xv198WAp9QWndup-73" value="" style="shape=tableRow;horizontal=0;startSize=0;swimlaneHead=0;swimlaneBody=0;fillColor=none;collapsible=0;dropTarget=0;points=[[0,0.5],[1,0.5]];portConstraint=eastwest;top=0;left=0;right=0;bottom=1;" parent="iphG7xv198WAp9QWndup-72" vertex="1">
          <mxGeometry y="30" width="180" height="30" as="geometry" />
        </mxCell>
        <mxCell id="iphG7xv198WAp9QWndup-74" value="PK" style="shape=partialRectangle;connectable=0;fillColor=none;top=0;left=0;bottom=0;right=0;fontStyle=1;overflow=hidden;whiteSpace=wrap;html=1;" parent="iphG7xv198WAp9QWndup-73" vertex="1">
          <mxGeometry width="30" height="30" as="geometry">
            <mxRectangle width="30" height="30" as="alternateBounds" />
          </mxGeometry>
        </mxCell>
        <mxCell id="iphG7xv198WAp9QWndup-75" value="Dni" style="shape=partialRectangle;connectable=0;fillColor=none;top=0;left=0;bottom=0;right=0;align=left;spacingLeft=6;fontStyle=5;overflow=hidden;whiteSpace=wrap;html=1;" parent="iphG7xv198WAp9QWndup-73" vertex="1">
          <mxGeometry x="30" width="150" height="30" as="geometry">
            <mxRectangle width="150" height="30" as="alternateBounds" />
          </mxGeometry>
        </mxCell>
        <mxCell id="iphG7xv198WAp9QWndup-85" value="Contratos" style="shape=table;startSize=30;container=1;collapsible=1;childLayout=tableLayout;fixedRows=1;rowLines=0;fontStyle=1;align=center;resizeLast=1;html=1;" parent="1" vertex="1">
          <mxGeometry x="740" y="810" width="180" height="90" as="geometry" />
        </mxCell>
        <mxCell id="iphG7xv198WAp9QWndup-86" value="" style="shape=tableRow;horizontal=0;startSize=0;swimlaneHead=0;swimlaneBody=0;fillColor=none;collapsible=0;dropTarget=0;points=[[0,0.5],[1,0.5]];portConstraint=eastwest;top=0;left=0;right=0;bottom=1;" parent="iphG7xv198WAp9QWndup-85" vertex="1">
          <mxGeometry y="30" width="180" height="30" as="geometry" />
        </mxCell>
        <mxCell id="iphG7xv198WAp9QWndup-87" value="PK" style="shape=partialRectangle;connectable=0;fillColor=none;top=0;left=0;bottom=0;right=0;fontStyle=1;overflow=hidden;whiteSpace=wrap;html=1;" parent="iphG7xv198WAp9QWndup-86" vertex="1">
          <mxGeometry width="30" height="30" as="geometry">
            <mxRectangle width="30" height="30" as="alternateBounds" />
          </mxGeometry>
        </mxCell>
        <mxCell id="iphG7xv198WAp9QWndup-88" value="Id.Contratos" style="shape=partialRectangle;connectable=0;fillColor=none;top=0;left=0;bottom=0;right=0;align=left;spacingLeft=6;fontStyle=5;overflow=hidden;whiteSpace=wrap;html=1;" parent="iphG7xv198WAp9QWndup-86" vertex="1">
          <mxGeometry x="30" width="150" height="30" as="geometry">
            <mxRectangle width="150" height="30" as="alternateBounds" />
          </mxGeometry>
        </mxCell>
        <mxCell id="iphG7xv198WAp9QWndup-127" value="" style="shape=tableRow;horizontal=0;startSize=0;swimlaneHead=0;swimlaneBody=0;fillColor=none;collapsible=0;dropTarget=0;points=[[0,0.5],[1,0.5]];portConstraint=eastwest;top=0;left=0;right=0;bottom=1;" parent="iphG7xv198WAp9QWndup-85" vertex="1">
          <mxGeometry y="60" width="180" height="30" as="geometry" />
        </mxCell>
        <mxCell id="iphG7xv198WAp9QWndup-128" value="FK" style="shape=partialRectangle;connectable=0;fillColor=none;top=0;left=0;bottom=0;right=0;fontStyle=1;overflow=hidden;whiteSpace=wrap;html=1;" parent="iphG7xv198WAp9QWndup-127" vertex="1">
          <mxGeometry width="30" height="30" as="geometry">
            <mxRectangle width="30" height="30" as="alternateBounds" />
          </mxGeometry>
        </mxCell>
        <mxCell id="iphG7xv198WAp9QWndup-129" value="Id.Articulos" style="shape=partialRectangle;connectable=0;fillColor=none;top=0;left=0;bottom=0;right=0;align=left;spacingLeft=6;fontStyle=5;overflow=hidden;whiteSpace=wrap;html=1;" parent="iphG7xv198WAp9QWndup-127" vertex="1">
          <mxGeometry x="30" width="150" height="30" as="geometry">
            <mxRectangle width="150" height="30" as="alternateBounds" />
          </mxGeometry>
        </mxCell>
        <mxCell id="iphG7xv198WAp9QWndup-98" value="Compras" style="shape=table;startSize=30;container=1;collapsible=1;childLayout=tableLayout;fixedRows=1;rowLines=0;fontStyle=1;align=center;resizeLast=1;html=1;" parent="1" vertex="1">
          <mxGeometry x="720" y="920" width="180" height="110" as="geometry" />
        </mxCell>
        <mxCell id="iphG7xv198WAp9QWndup-99" value="" style="shape=tableRow;horizontal=0;startSize=0;swimlaneHead=0;swimlaneBody=0;fillColor=none;collapsible=0;dropTarget=0;points=[[0,0.5],[1,0.5]];portConstraint=eastwest;top=0;left=0;right=0;bottom=1;" parent="iphG7xv198WAp9QWndup-98" vertex="1">
          <mxGeometry y="30" width="180" height="50" as="geometry" />
        </mxCell>
        <mxCell id="iphG7xv198WAp9QWndup-100" value="PK,FK&lt;br&gt;PK,FK" style="shape=partialRectangle;connectable=0;fillColor=none;top=0;left=0;bottom=0;right=0;fontStyle=1;overflow=hidden;whiteSpace=wrap;html=1;" parent="iphG7xv198WAp9QWndup-99" vertex="1">
          <mxGeometry width="50" height="50" as="geometry">
            <mxRectangle width="50" height="50" as="alternateBounds" />
          </mxGeometry>
        </mxCell>
        <mxCell id="iphG7xv198WAp9QWndup-101" value="Dni&lt;br&gt;Id.contr" style="shape=partialRectangle;connectable=0;fillColor=none;top=0;left=0;bottom=0;right=0;align=left;spacingLeft=6;fontStyle=5;overflow=hidden;whiteSpace=wrap;html=1;" parent="iphG7xv198WAp9QWndup-99" vertex="1">
          <mxGeometry x="50" width="130" height="50" as="geometry">
            <mxRectangle width="130" height="50" as="alternateBounds" />
          </mxGeometry>
        </mxCell>
        <mxCell id="iphG7xv198WAp9QWndup-112" value="" style="shape=stencil(7VrLctxGDPyavaLm/Tg7zn+4ynK0FUVyyUpi/33AbEByeshe+5SLb/YKTQ4BTKOBmUt89+Xxw+eHS3Bf3l5ffn/4+/rx7fESf7mEcH1+fHi9vum/LvH9Jb779PL68Nvry5/PH2////xhsVz+9cfLX8sTvt5wPYuvCyq4b//90iWkf3/59QZ4uj7vAUUiAIqkRgBVlr/tAUl8oYAKgCC5E0CTkEeAuweoZQA0fQQDdPF+BGSpzEtdIgCCdPbRCkgDoHbpkQLArbVICfSjmxsBUZyjAD96qaxuOAtcjCMgi2NuLRLaCPDi2ZKyrdgAuVrsjwFR8rikrL8wL3lpfQCkbr8cA5y4MXBJ9wNZkqaagzdEi/0xoIgb45CcJPINLUofvRR1S5Fcal7KuKSYLX8PAZqbafzoqLlUCaBaXFeAk84AScpIM6HTbK3BaGsFaGqQb9BkBi+FLJkErlQpYxxCEkeYT7M/jbwUglT2higB3uAlkeTT7eJGEgiOBi4rCYxu9Z0DCrKGb5JJHPIUOF+lkfTOwZJ5B2AVSDdkhzcUi8wxoEpyCGA0k5Ix6QrQ1GBLUtYY6d4n6SQ1YsPkUwDb07oh20iVPlpkjgFhinSkZKz7qwIgUF4KRSosSXmEAeIUuDV/jwFeIrzBGfEcAjQ34Q3dvHBsX4wXN3u2GzRIFcq6Bf7Yfi36mz1zqfojj/ZVOiEM71BmKEex+ikBJAClyIZ0VCwJjylYEpR/ycT5BWVesdedmEPZzFRQJXPcZs7qfkRFmHlmGo+vJVk6cWRAkZ0prQesG1xhB6SGKplxD9aMJomESVO4w9NZEkQUK43WyIi6QDcIY7XZPBNhc7AYptqDcfZm3ql5Q7Jh8jjYuzfzQNa+9jzfR01TFe2cvHFr33s69D987X6mYVZvPTqy0dbHY7tXKRM42/i73UQW47Cv4qpQ5f/oGdUOJN8dNjBKPIQJnJTx6YFypHZPIwN7q1cn5lDNPO2CVQ6MGcklfMIwOdoiJGOhnTnTaNiyqDnJmYR6y4knUc1IHFpoqbnHtbNWPFvV3TmSmntQQZaiZ2tHc1Zskr37+3ImYdX2VN0naxZ25mR7JEvAnTn51ISawFvzcVIOekLPkKiqwC5gzuZW0RyxRbVxc0zgTPWMw5xhhJ3E49M9dWTC7eHo06E/umfeIi6GtZDzpwaSM7o90O9M6WXUwI6m2GTuqSOz/XWXYtQzHfcq66CSFYvd9uB79UfMVc/AuMI6wrMiDzMgKt20lxs9w6fAU23KdK9qbZpaFRKmn6KWJMFPUfu/iFpwpCYBlW4w7awm/U7MQXYW0xRnT0dRy1gsTMNdysBT8xyNGs4qX8WnUx0JAiXSMpyxNiXKM9VU5kZLzO8Vh6GZDk8bauDMzx5wPFaofl+GZzhXqMTxfjoWqJT2lgEjDiLYZMEn4+hdI8eSuGCBajZxOrbvuJ5mtH82bkyjfaeSbM5M9bDnE1PQfAqo7A19mvrqGpmonNjeBzrii/kAwJqR2LB0atjvzMb7NBu/M33HFiPdm+9jk5F5h+SmFinTNjwH+8QVUExwHAOm1FYAa5ZzmeJQqRTMU3L7RlOjeKyOuj/YWLFEq0CrHnS0vSoZNdumEY8BFSWkkjWT+tWhGl/onnx0DTa8WQGFnrPU6YR5mYIzhq/m9bXeOA7oWHF007LhQgvY5cZkY6FjQMK7BLHS0UsreEoeO+0UWrMJ81o1A41Dd3iwkTKlmR7whDl1GrjlUgk0DPy8q2c7KlkB/HijT+xdHD2C6xXPIEqyCnYMaNiwlUbPFfp0Dq8Jz9RO76hKKz+k8W6aWC4XU9hH9OnMK9oViTMA3sbJd78aGqZGZ7TL1RdoOxx/Q7MduQLuXN+pKE00H9khTJ/4fvvlLF3hIH7xG/vojDJ7CT4HlIYAegVp2kELgH8DVJRdep0hsAPsVMMpAO4gbfl4BsCmcb0YcgqYvpqR5XLFbgoEG7H2aYikAHqf7QjAlHfPeFCw3D/jufGD1wTvA/Qf263ET9enp9ulxv3f8Raj/nS7ARnf/wM=);lineShape=1;" parent="1" vertex="1">
          <mxGeometry x="432.791529242073" y="939.2573809998382" width="154.17220152014625" height="112.30889613330623" as="geometry" />
        </mxCell>
        <mxCell id="iphG7xv198WAp9QWndup-113" value="" style="shape=stencil(7ZxJkhzHEUVP09u0mIc1Rd2DZgQFmCCCBoIabi8PtUV21feql42FdtwB1f6rMiLdv48RL/mH3z/+9NuHlxR+//b1y98//OvTz98+vuS/vKT06dePH75++mb/esk/vuQffvny9cPfvn7549efX///209Lcv3rH1/+ub7h36+4mI+SFyqF/7x+Eo7a//fBX1/lP3/69VY+HnncyZ8fPJYPRwgiP9tz+XmkeCeejpyfi48jNRHvIN714fMRQbwdPYp4mSQek4gP+Pa6N3qLlyPCTtYjZBGv9bl42Y/6Jj7Lc/F8zHonXo8M324bMUS8w7NnVYJ2JNiZdNQp4g323VTk/tv7EQOJhyriNYEGHyOKOG1kPOr9axqokWY990owj0rmdCSxPrMvMtcjBZXn74/3j2P2Hli+qnyDvTf5ci+fttG8W76BXsZtz6d83it6t3xjeXmesnfg3fIN1UHl6/7k3fIN6NWvt23CfSafVJ4M3csb5fLzTJWfuP9i6nEcDfWn3PuHOI+M8u1en80dBtz/GVR+IPeoe4vobtO2plM+XfCyOIkLD+d4fPkseF/OTSwvBPtZNLowR0HcfDqpG/kK1F/d8zfkw6aOyD6h5z//eiM/4Hn6Ee712T5JsJ/96EXlid+GW+84Ajz/VHtZ30D8E3YMcgMYRHCnfzgBFsKRxaQHADThvDXmDKvOmPIxwCg5KiDTI1V9awZAL9D2pt8AJqiFsZoCTiZ7DBibdm4AuEvT7VLEOMWIKt2bZjZyIioyLu0KoEcyqhpNAbRLZv35nl1yRu9h5j+zAijaegv1TkBBfjTdFAdlgEpxdNj8cAOYxMDJPZKF3uCS7ftCVwBxxvqz2EPbIfBjQN8WfAMo8KbzVJs2ALmREp092G9SNpOdPXQMdEp1uzQwki3dZW/jqOSqpsbKBpiwhuqCL9u3TM4t7fzxBtAJUHayfCZ9AcPfWo9RFNBAvWtXEy0RA+BqexIVQCbagtpDScjeLSndG4BKDM044p4qTbsoyGhVk7RS0Ku37nL1sgPFx4Ch3Gr6W4EE2tTSRGGb7kF1yQD0Cz0qexuA2LunHSicgL6j78eA7H6Bg/9enLaOnW0/BlT3C2a09EhtP8ANYALz9XGke22tAYs+fWrVx2hhAC+NqOWKmjHkG2lnmCegoGMfRYtoRgsVdmlUjdJrQ/UefRcdToDtG+jSmBqG1okR2Qy66BbRHqZFR/e/YDyS6ReyptrGI1TqmEVDh1aOTr9Q1T8Y8QwGSPbZODuZzRXW+q5uPQZ05VZjKlx011jDmIre9BxKlQbAArFRpVT72GUZQOjeqI0cigHmvU0btVHSOqfmDwYg1jBAkhKk+STS1ukWXTD2NkCVqiU7FANIpcG4sFwA7g2od6QZA/R7mjHypNjbAEL3/QwmngGEl/oFa0wlgRHQZS3A/Zs2eqa4NQbX/zB+porS+omqAGSBqZ59mDKxbohBDM5pljIJgLsDS79lXxtGicuCogKQycZe4gnoWNieQytR43TdzwBC3wbopBt989YJmGwQfXc1bgDoICyeulcNc3ukfYu+mwJQNZpS3+Tw3gCtKKCRjTZVjXlBrlXV2wD4putR5JHy1q5ngOAAVCQzzy5V4slVUwMI308OyaYLjd9+8xlAF12xSGabqC+u8ra6fMBeJdK3b2217cWexXBiovMirJw7cj4BHR9pGWRTABWYzOR1lzrW6w0gRGYAapgYbak9cBJkxCgJxGIqYG/jasnLDEAFJgNI03CRJ+1S2enCDYCik+HaCJO51Vyg1MkNcJE16Ysb2C5/8+M3APIPFilM9+IGA3QNfbuYZ4DmtDXSiwuOlzqSwALIGi4sLuww9QZA/S4DqPKdQxXv3dbGHRFXVVsAeqS4E5IbAJV/hmsiXgMkCVqPRLwUH2wrTTyMR2RMocOIGhpPrtAugNslyssWQN4DR2Rm05Ljz4uiQHL2wPmA8ZJkTRZn0rSBAfTFTQx/DNCnApA1itulyQNO1TmUyWRctbS+MjXeJYlbV4JADsWV4VYKwv6hdQVQpXy9OA8g1XAlrJvE6xkiuFXjM2Vt7FytOm+LvN1X/oXuXjW+uaxJ0NINYoG8yfq92pcdbUyc3LJtje6RLiwoO4O4sNHqHgnjn7L7DbdrYNXwbxqJqTiunNgve2ijWHF99Av9e9dAdemHu0Q1rIfvYRLfuzf9Dhv9XkTUAud6E+x51QlNTBZXQOO8FvUgHsRYA0dUDKDRdMcC559x4p9x4nfFiRdR3P85Tkyu2tLZ4nyc2PcU1DOAlsk6J4tZ6/fLRJmOo1sD1WgfxImd1bs6XepYo30rsN6WNmjRzdXVOo6CDl997FjJHsOFWI190HBE1riOMF0AxOOsq00oAVDlxkvcExo3AIoFptfWi65fchZXuDCdXcSUcURv+jAxY5g4fRCXuZladOh98mjYdHOea99oW+tu2d3UmWkUxgDqsi66ftU5lHDVTNViYtgW8gygjj3s5uczgCRapvBUxFp+3wFo6GkxqfRdBleBu+sdDVaNoaHu4hHuvop6Dx45X7VG1zsi9l6lQ/mFetW51DUU9EBzat/FXExjgOjSSNxRmBqcXLcVFRBxhulBDy8wa/im9kQfN92Qx+rv8hpkGmF1kHkNMlzQO47dzuE6yO1KW7VHXdlEXeOyF+5RD82z1twUbevQvkvnsdvVPxgKoAT5rUNxAiKrRtfKRudjEtMd1DMANpvcgHWbbKJNXVYb7KfdzLcBsMPmXNYaC6RHKjol1RoDsjY5WsEUfHllmc7hI4rTpTQtcXs3aOjQeNB9xXxu0ovmpUfXWeN60dlxoXTtOBTrC3e1ctyaNPaufDZzBDcEmHGXupswqokHGbtmimv6mMY93UmXGjAMNZ4r94DCFtfdWaAy0Mf17IZiBx7eMtpSAI+3GW3JYIsBKEg0FlJAw8TPWEhHh7kJ3oaWKQoPATZ3SLlwNNPcuEPhWTLjCF1D5gHrqNluyVhmbkGPxZWEoUMdmscVniIxk5fjACXiwa9alYzfziw8BhQ9gFP4JH09U6QbAOVAZpB62oWPA5i5iJ9eBw7olEVzvzCwzldcmTkPJIHihsQzV0NtTyTAynxCzr5vdAVQoJu7O1rSsJG/zue40y4UJObsHokzlJz2gMYJqDi3lV2BNlcksjS06beOKcG2rnOM33UQat0IEBVAnaDkqg7rMBfoUnLRjAGo7eJPwxuA3kN0A6X2Zug9xKHMZwCaoo0uMs5MZLG5N82FkHUg3J0kpAZyLDqnkiOfQc862LsOwdGik1s0p5brUoGhAIpmYlBuTRNPHU3tUK+Ts1Tb1PBqGRRePCJzleni5Io6E5Onrmhz56y5vuyGKhMnxlWtP3HcU7TRnDjsOcchT/mKxbfs9p/5LmsxIxU+KKqXfpg8lbmS5nr2izRjF9UjpHRxCYkE2/YJEpEeGkoB9dPNptknlF+4ODhynzW4e0sG6mdw91QMLJUGTc4v7p3w8lxkDDqFc3Fvhr/1iO/leCRPnOvl+V6RR/LkjP16+V6UR/KUY3v5hD3uR/LkALx8xLq21wc+Pha0tRUDHhYOrmGIhZqgpwo5tQ47LX4Tp1TFzVlzzT9oJsSuKCj1dyx9R03MOl8fsc36rC9hITFqtbVhIpr0SPd5PvqJeFNxOkKYXZaLydUZ/b6J0+1jRXem7JrRE3ENbdEhVu1dZVxqc9cmYHfCHTtJONbQXfTCB1w1WIh8oEqLc1wpMMuXneS+oTGXDL9fXDGU1ZcHnJdYzNtUnkwka+x1KS/pL3cxo7tjKHDSlVXVAl8RljUNDHiP3pLX/cQjfA/kiUOWvN6oSKFvzDqzdpEMZa3UBkwlvvuGx0t5+8fbdZK/fPr8+fU2ytu/6/WT9tHr1ZX5x/8C);lineShape=1;" parent="1" vertex="1">
          <mxGeometry x="455.09634935041413" y="838.2678305139641" width="158.4556878469466" height="236.73580547303277" as="geometry" />
        </mxCell>
        <mxCell id="iphG7xv198WAp9QWndup-114" value="" style="shape=stencil(lVrJbh03EPwaXQluTbLPjvMfBixHQhTJkJXt79PMA2ceizM18E1LNYfsvZp8SJ9+PH35/vgQ/Y+P97ffH/9+/vrx9JB+eYjx+fXp8f35w356SJ8f0qdvb++Pv72//fn69fb79y8d2X/64+2vvsI/N7nqVLpQ9P/e/qDqNP//l19v+Jfn1wkfC+KTnOOLK37GN1c9w4eE+NDO8bKsX10m+xfn84wvTsj+s8twXnGJ7D85hf0nVwPD4/rBNWV4HyZ80/HFQ3x0Umd8dY2cN7oAeHESz/HB1Tbj09DwCT7P9mreZbL/4Pysn2r7J/vxrs77r2Yvsh/vZNZnjVSf3sX5vNUPC57gQ5zwxfyZ+I9H+xah9jL8rM+SXKH6CbC+WaQyfJrXF6X28hiPUl0i+jH7zvoRGRo+wYM/S3KJxFd0cY53CS7y+JrxWSk+L3h+XjvdrJ8sLpPzFswP2exL8BYdc/7JwSmxr51uzv/ZLM7078fnh0Bq45PHAktGSRceYQcEAXFKTBBk+UJ2hX2hLGdItIiF5uKs1RRHHB0LqKuzWyfvlGzJ/DroJGCWUebX0RUQaFwgYybqtZ9Y2lw1KwoEVjqKq7Ovdu9ltak5P9vBvtmYlqzXUBRg0W9ah/JkamDeanaFeDABFg/mOesXPGsQtnjfBMzhiVp7uEQUiExAsUczZ1GyJUsREEC9bWACliUTCgRSZXMedt0ErHFgbVfBADKBSPJYbk7gC55+QfziS35E+bGAucZcOi3KCxMwR6go4Im3WunT2TUs8SRyaGlYPUOlma94jDjLhSy3ljhC/k4gkUOXPMrlJiC0ISlbjtgEzFlYRWzYAphAJN5qHVqZa7SVGCFnsBYQfMmKGNtSzdgVmgDrGqwpbbAliwe2pYV3mQDjRbWNtn0T8JR4VV205GlutcYd7KCDSx7jw6ixO55ZoUUsWEpzjOHb7HltpOZjfBrRu+NZpm8Z999oojfiBK18HRo+w0PKqzTNtzLiamvlKVNoW2rY8Yy5tIaVrfDzKo4ShBYRI7p+tlemqUgjNmGZ7t+IN1DNRINY8yBCOz6RxKVb67EVkNH/nOHBPyO1r5bRJm8ByfVZMOItQNl5K45aPLWv4asAPpL8oA3901P/7IOnhvpnxMIv3NfSOnMgHUzoziEuNgRcbXjsGR4CJo+kfYaHjJtptTd8xoDJzGA6Jh9365MEZHhocHhdNTzMEhIPYOt+BPCV72fBM6rc8Qr4yAJYRwXd8TQAFGch8cp/MnCJMZw69YcloXB8xfUZezJ8Q//3XD9aUJ+MJR8GJFeoosEuDqxYAVg/3Q+MeJqxFDl1pmMBwwsG2FVALuvz8+JwhleMrUG60w93CL8kRJJxfxq/jZr3CsbuFnpFAu7AA76gQ0desQvqJ9EeWrcGZsczwmcdBFS8PIj1WYciaF+aEONwl73Dov4ZluEnnQOoxwRaRgY76xAhHjmZ7FcP2BELYxhmXw94Nsu0Dlqxo2fx2JZh7AVjyIOw3DEStn7C81pFIP7ZluGzDgWcMR6knZ6OJVtAhzYBdlvWlmmvCTTyBWORdSG2geQg46nAwkyAXcgZE4YgMK7tGXUW5CUmwBrjuk387uYFjHnWiMzKBCib9+PfdyMMxj1Lw5l4EHrNVgq6qgmwLZWMtSkUejFUlpuVUGk2LR7bLRNo7Kq24QAgNJovpCzTLaUFXzIOPk2AtXQSlxbQ0xIlHkllv/EiArkhKTCBQs6QlyQZt8HJ2SxWl+FtuZj2LhNr1ijngEy9UzmSBJIejLgZl+4z8WXqzjJfEmzVTID1pilh79JvDtjUPSLb6nd97KrBj3HEnQC72uvzMuAHhV/INKxv/YqGHLrXb7BDHVF+LCCY+S5KdFzGw73mkp6hcxoIIKUPKixcwDX6JRC/q4N4SPxuwrJQhjYy0jcbfcYORDnTELVcjaMr4a8kEo4qUuFniKMT2QQav9H0WEUtaIWRC5xG9Vsm1sxgss9x1LzjcrIMW/h0Q5Zeu9ADZ1RQrpS8JCT7WWkzGbGzkjDmvyd4fCiRBls9Nhi2eiLUXss0VuqY7x/i/QjbDa8X+LI8PGF93vIw5/JhC+KF6t8v03M+zl/Oa00cHU8u038+Hg7LwyKh5HF5CGONMdNPwNTe+Ph26XSMbdBEjbOTzq5ovARYn5PBhHdyTS8e7kG8GBtmVCdjvBg7ZzlalvUzb05x/yq061p6WS10/2V5yFlp/qzLfhq/7sNZlOGV6KdhS9fxbDiAtG4f557gc0A88+eG18wXD1eP8JnvJyKexWPDNkWVDn/ayDZ3eHrdd/BQlz1sbDh72+9jzvDwGsLz+6OGb0b28e+Jg/7sy+QrvP2wP4P+9vzycntFff9/fDZtf7o9uU6f/wM=);lineShape=1;" parent="1" vertex="1">
          <mxGeometry x="50.88625601896615" y="934.7689618601073" width="198.8779765969191" height="115.89414864222454" as="geometry" />
        </mxCell>
        <mxCell id="iphG7xv198WAp9QWndup-115" value="" style="shape=stencil(rVjLbhsxDPwaXwlRlCjpnKb/ESBOYzSNAyd9/X2pGnJWXO8EBXqzd4cr8TUaaic3r493L/tdDK9vp+PX/c/D/dvjTj7tYjw8P+5Phzf7tZPbndw8HE/7L6fj9+f78/+Xu47sv74df/Qv/DrbBQqxG8Xw+/ygNQr575PPZ/zT4XmBZwphxmeqvI2PVBw+kpRtfCIuE742KmA/mVqd8UoK9lMpphkvFCPwN1DmyaDYhoADLMSzx0UpKDDIpDobRIpohTp2PAy0UgY+WJLTvIImqgIM4oj5xYBJUJbzKJphkAvVCgwKpTYbJJKwbSBhvL4YWGaADyIjiMMgKTUQVrHCmVdIQgmENVnvzCtIg07b94ozUOhDKiRzdXevGuiG4NvB4sZgSxb1OBv0zIAtWV5dHnru07aBhvH6YhCpgrCqEYTMBoEqoAArZp1X4EaMVrCoz3ngQhmE1frL5YGVGPRDCZ7GOFEBWypMzflgxYdWsFpyBpEY+FAyycwabFwOSqMUT2R8OSyuGzTvQ4WVUeNI64VlSABR1jza8dKg1ABl1OrTbCEF+2nB4yMpqLtmAZr9DTADhndnocUTtFqrg3MXeFAShm/++6hI7aRPHi/I3+bpK5CCAjJ8c00wCHMT77psHBKb+2kOXzE+OWKhiOPfPD6h/dcRvnc8YpVeD8nj0feLJ5UIz6emVNjhGeXX2s/Hs6D9K8Xs8ILqQdf13EC/Gz6rw2f8fVc/Aeooi2de9RfOL6/wgH8MX1Z45G/z8bT9Y7z6fswY7+o5DMLekL7Bi33+iCCqb2AklQ2/IlxGDdl8AuJgsP+DD57gTJqDBqjNq16lBArURpM0N3yBBGqjic4Ja7CAqumk1YmNHLAT28sUnLGyahnGZ6SpDr8lEy4gxyX5gdSUExowbVjilTZDssO0mdOXpv7QcHNF/dXB3Fv60ovqAIdMFc9cH1CvjWN5puoocEu5UnVnTYbTUM5enJmaE7RCXKkthtWammcXSfB8StmfT1LGk+sGFsT5AElYschKcaUEJZ1kP9wk3NISPSVlHj14fVBuI+qLQRmpXuMgpwIt94iVTEXr3HGKdZSxqNM5muHB38+9uby1QaLv49jcotblFV2JJC81i8I8GG2lOQ9GnuheypiUZ6eNndEdShna5oIvsLp1FNqF68NgkY2LMlfbLcIpWVbfxyNsHBcNi4tBNJ0ZPnh8BnwR/dnZ5TzYD3s+6moDqZdxDbjAQ7Xj+6zjQRewv/xZyKWrBsFPK30BENAwwrd0GBRE8PN9Dyj8PqvHo5vTcCVh6KZoJR67vgUJ+Neb6I/x9uP92vvh8PR0vjVfvvfX5PbofMUut38A);lineShape=1;" parent="1" vertex="1">
          <mxGeometry x="665.4336286921789" y="734.6630242990827" width="49.03872079156099" height="70.90223712285547" as="geometry" />
        </mxCell>
        <mxCell id="iphG7xv198WAp9QWndup-116" value="" style="shape=stencil(rVdbbttADDyNfold7vs7Te8RIE4t1LUDx+nj9qUqrCtS0gQF+ietyCWHHD40hIe349PrYWD3drtevh5+jM+34xA+Dczj+Xi4jjd5GsLjEB5eLtfDl+vl/fw8v78+TZLT07fL9+mGn7NeJa6TErtf84EjF/8cfJ7FT+N5Ic5MjZU8U6778oHJByUfKeZ9+eioOSVfyBcgX6k1Je8deWAgR6pJK5Qegk2FIgCzRsyUQIhKo+K1QiMPFGqiGpVCKNSAS81R1EGKgiEAhdgd6AopEwOXvBMaaBPNU3DAhKDWiW6BWgIKlbJORMsUQKrlc9VUlSuCh6izwdAoAW40JqdTvYjDdurkQr8yAUDUe6KWIEDqhBwx2zBF5FLsUVwmArBJFJwuoSnVyCWJq2ZTrVQYYmgaQxUMqCKE/zpKYrOgVDsKui3VAF2SVNdmFVDiWqJQrUuob7RCybiUqCALjZyxULqTewrNkE8aAwK9Vgjd5q5LhhqJMsqDgDb0Lr0v7IU1rmoUtrLVAJpQoT4j1IhWoQIME/lMY6pUcYm2akF7XKK29clUQgW0LlEm/p8KMrRYRykzZKuMxaQtyAxC3TiHDvE+5SRuoAkkb0eQ7AIF1EPItkTZ95PtZWZlwec+MrYx2ObtY19XtreTvigs5CNgklSjrk8vTQlw2/ced5fn3gc35R0VO99gKbi+e91ZRB6KO7u7IUY4Yl0FqXfMHXGzGYa+Nu3ExowQhttFIDahIYaZrfp2B4dytm3xg7Xi35byD8Xl4e/+/zKeTvPvw/K7/V+Qo/lfIzz+Bg==);lineShape=1;" parent="1" vertex="1">
          <mxGeometry x="704.1486576163948" y="733.1526940823098" width="11.732518583477031" height="11.34698960844321" as="geometry" />
        </mxCell>
        <mxCell id="iphG7xv198WAp9QWndup-117" value="" style="shape=stencil(7VrJclw3DPwaXVkEwfXsOP/hKsuRKorkkpXt7wNmim+GjZlWfMvBN9mDfiSBxkre6YdvD5++3t+l+O3t9eXX+z8fP7893OlPdyk9Pj/cvz6+2V93+vFOP3x5eb3/5fXl9+fPp39//TQl51+/vfwxv/DXCZdKyH2iUvz79D9jhDz+/Z+fT4Cnx+dLQA8t7oAeRr0NUAm1IEALAWhosKUWOtmS1pAzAjQSwHCAGkq7DcgpFNhSCY0cOpdQAZDDYCv0kCsChACKBIEzKFVrySHqDkghM0ANY+wAWZu8CqgxRKBG5AANMW2AbpZJBFBD3A/djUtCAGP9fABaiATQUhiwQgmFAWroO7278ZewtUf0uC5rzeuAjFpqIwyiJTti2rfUWmjkDGYm2bXUShCygjGn7tQwvSVyBiNz2wFmGekEUBcRDoDZnrDVXL7uZ6gpdHbojloqIxR2aAPsLmoekgi9bUut7QAjPPFpOzSQr0SuJYve+wq5hUIin8UI0JJFqsgAEtLu0zMWEjuYQ0JszTEkYgfzr7yvoC0MJQCj2h7I1KItsYO5CziQpZhMVmjH9w6AqYFQ48z+BUi2Jot8PdTdcMlsT9RaC0Y+y9yRnKFK0N3jki69XQ/3lmR3tSahkc8SStrVKoMazsgMUUMOslxPig3JJ42qNetKsgegrFNdB0TMcWKRigDU0Vt0FUS3ihPZ1SoWlxjA5WkDMBfVhNFbjK2sXjKHBC2ZZQi9reaD8kci3dIk877CWE5+Xb4EhZxIyyujclWQF2I1Y3LbHbrR0seIDJG70pxutKwoH5l8WTH0CPS07jGOFYjCVD9yeO5ZXljyxO3YemT7Df3Y0hrJUhXLQqsemNejbRNn87LkWZw6cNAGe0+sGbkiTjK4rr7jLK5EM4qxQVdteJ3Gqw26MBPZTFq/nsUrc5KVpi/EyWYkdEiqNA4K1nO6SHRDHNKd0hQfsSk1cbKZ6DdTiGai1wwrH+Ly/QsScHFHMRILXJOVqCLjKuQvvIlrBtLbOySAzQit9Ywze5iPNBWOVRKdxVnWsaRUEsqzqOpIFnnUFgw1kerS5JuAvJLAZ/I9gjwbxczvo3xlWc35YFyTlpv6we+zOYy4zjbSmtbMi+phI5KxxhsX4qxNCL3i5lnfslR9oRv69YTihajStY6RRpDuDZXo1xtqhmf7hHqnnTXWTpFOUIwFqt8n74ICq/GNle77wuUrejmrJ6ZXoWlZkzLlUfss98zaDPff+PfFEZmdN2LzGul4yeQFvZy54ffKZ6wTzH4kKCt2oULdVtFTeDb8Uc79KOf+b+UcZIa0DHFLkdgcsZJFsa8WysiKMyOhI1TX9aYgZDMDc2aiJJiBD1nAPi/qNd9YICsrz5ybZDakmLOnXZmFJ6rh5sW0pJi22c9b6VBg0haG8JQLfsjSqH7sZ9m/36mf2M9450Wn3er8cNAIpa48nqUGSyWKEXNWtITPWlz3Y8mdrdBwcCKJ3iHowGLHWEtHoMl5cOaA4ny40IF97jhvET7sKglvHqVTxyzFzX25pYsr9WdfyeJWCgOaYqWtYq1rwHUAMo27LboJf11133WAK2RmR0LcoTUMF3pkzetVf0TDGeHZfVRXvKqchGdXlQ2zjRGezR2Hy5WZF/MjoT8Y4VnQGwUvdHNetr8OcFEsNxrGhruamZdw7G5z4LB1XvOxPjy6Gc57N4nWKkPqGdSpDaA7XedtKAN0dGpzEWHXpxWzTx20lh7ZpZ9EHywMwSF8K3RW2w8HOwD84ci82odrh0jvEXpa+eMAJNp8to7N6rzNJ2RqGcO3bZJl6XZ0jweg0f62Nkxypjc27a9+S4NmxXn1CG9ZIj1D6Rjvz7a/lVEQkDgguec1utz8elZ0Uw/jL7tZz3W9yTgAhfYJ2UVjcyn26CK769P5XoC9vGquIGv8rrK4BzydV1gJZyXjnYu7gzkH4J2bwYoV1oyFbIWKHjcBrCyumLMu4vOtQhos9x8Q1R17sNGAJWZxABI3DJD8sfmWoLsyQOcr4PuxQcfHE+DOwJ4hTYCzNRtozzM4AAtlU0vDAfihv/N55PsA++P8GvPL49PT6THn5e/4etP+6/TyUz/+Aw==);lineShape=1;" parent="1" vertex="1">
          <mxGeometry x="891.0158688246361" y="753.0078706482711" width="57.60078724208097" height="210.56847062511656" as="geometry" />
        </mxCell>
        <mxCell id="iphG7xv198WAp9QWndup-118" value="" style="shape=stencil(7VrLchw3DPyavaL4Jnh2nP9wleVoK4rkkuU8/j5gtrg7bM70yrccfJPXwAwIAo0GMKf44dvjp68Pp+C+vb2+/P7w1/nz2+Mp/nIK4fz8+PB6frO/TvHjKX748vL68Nvry/fnz5d/f/3UJftff7z82Z/w90UvF8m+awX3z+WX1qTF/3759aLwdH7eKiRxARUiU/DiQUGlhGOFZP9dZoUqLROFLAneUKR5ouAlu1khDzfsKsQqLs0KUdQRhSBOZwUvWo4VQhGdFbRJaUTBS50vTiu9B1+kzl7SNN65rxDEg0lBQj1WUEmzRbWNm9yPDInz86tdGzEoip9vrSYJ5Nbsluc4qn5YuCvvRlgO+aIjTg7kXZvlLRDJDZj8bH8xDxN/OjxvVmkkcdx4+1U+SyF540TzLB8kE3nz3iyfGs0ai5bZ/6lISux+4xw/KUom/kxSwR4nlcgXiXMSRx0ePorn2Z/RUIL433tx8wEMBhiW+igNLHI0gnwdATMUzEjHUMIhvFvWsRyzS2hz0PVfmIKZNN+y3bsnZ7AjQtr3wGVYGiXMCl5FWRxlqbOXzG8U3lXinMkGloGVKAu0+eJ8HmVxX8ECAd4Q6RmspnlQCAO/9xXqcgYvhaBLT9754ryjClbIG5RZapExBcg3pSXQqAjkG09PQ0Mo+3VE1n76O6xPhdpv6JwTyLNcK4ZHgNeSmLyRCsAvUSZvPCuAfCRwbdUuzvZwzlIX/I203NcrGl4TmT+/IgEJEtnzmyjKO5LFuvAVSwASD0Z/gAX6EVD78gXjx48c3ZdvmJHXgnskD/XY0fg0eagejpbLZnwC5Zn/28InHAVFk1cH8p7clzHigM93zH4/CPFGnsRbC1iZHI0fky9ov2P+icjn3HjhkXzE80Zmv7GfCvKJPx86AsNz5s+IRcyNhDu637acl9tf0X7Pnn+tuTd51sVZG5mAedB8tD4Vnn+HnbmFsBviEUDpnXMAeVbjTb7MAVF4wDVkf+YxAijmoAwNCk/4ioBSaL9k8mF5PgvQggFq9jP/lFF/Nv5h5y3Iv83/zP48xgqb++XPx4aMJ3DBhimPqcCRfIOGifZ75n8AiMQTWBFwE/fPla+9j6C0peDlMTY5kq8K8jSe2+hE3kewunwF+cqfDw1l4QWmIcG1gGXyKnXJF+YfxQJ2Nx+B0JRxIUfxpmhP4PIJn38H0B36n8ZPRvzJUph/flw+ISFm/XxLa8Gg8RYwXzxtSH4Svp+E739N+HaeX7k/63xeT+O5xxtMsyh+3gbc78tHzViPAh2pa0S+EWj9VY98IFL7raGFTQjHH2uYcZ5ICbE15CCfRkd/1PAv8rSBXwfGFE+KIr81/GfyZcwzNvWOzXPTcPdtAMTwoVwHkzf5zOxxiCdK8z0rLgSUNvw5j+u8DdSYPTkOerqZ2LELyH7w681MkDGs1AYgb6aOrASkMhjkZq5JFRJinOdBmgI2GZ6zvtjQq33zxebLC6z4OojjvkLCPPCNEqfosdG4MwqywKnLUJ2FRlhncYkO1cNSK++QxT5zh7G90upk1wTVI7pxqn0Fo0+wb4l8v+cwNPrkn7xh6X+ijtXCPgDgIjo5ujHNmG4pUkK64JelEysIEetZ4oARsN/oCz62LcLNTF8gst0PDrD7gpJNVDAN7ixAA27dCy84AbHFKhDdLEmCBfQdeMR+0iooA4qKA+la6ELcAhoLVKMj+L5EmtPeOImyG1DcpWmiPUqnNPOdaaEkwZIsLh8y0H1gxD1U7xOIlyxpoQwaUfXkDGnh7dbZ0eXb8jFGH/2wQrt0WtaLs0NbIuInK5W61TIRilSf7hGsyBVLSB8fMvZScbrSB6bsDLocutFSbgoQS6bANi6mABssU2Adb39DRQWGwP0MDRUqVwCGZAos48ytuigwFm8KeTGJoYwpwF5wM7k+0gBgvatRdqKJfRbw49+V3VewP26fsX05Pz1dvoLb/j9+9mY/XT6Zix//BQ==);lineShape=1;" parent="1" vertex="1">
          <mxGeometry x="686.6566047488241" y="854.4331851995105" width="51.35700988109875" height="130.16195332754455" as="geometry" />
        </mxCell>
        <mxCell id="iphG7xv198WAp9QWndup-119" value="" style="shape=stencil(lZbdUttADIWfxrdnpNX+XlN4D2YIjYc0YUKg5e3R1mOIlkSd3vnv88pHR8c7yc3L9v55MwV6OR0PT5vf88NpO8mPKYR5v90c55MeTXI7yc3j4bj5eTy87h+W8+f7/mQ/+nV462/4s3CNUEKnAr0vV2JCan+v3C3Abt6fAxmlGCAJWnWAhsoGyIKaXSCJAUoEeyUltGyAqis4QG2IFmiMFh1AVbIltYLE14FCyFYlJgLRdSITJNolGtiRKRGq7ZzqQE4jooBtI2oFO4BUkAVK84EMsrrmBhIHKGMjUkV1VIphXCGqW5zO6W1pFggITklaQK4G0CKzs0KuaMkCGSE53lARrZlU6OB8dG+TXUFbGfyBoGFG6V8zykPjCLFcB87c/OkNWoPh8hI6MBbQofJa3UdysGtbX3FZJh36YUg1GJySeqzYkr6i53KrBeXbjFYnBjQa6wBofHozmhCHoVZZHTN1QP4HkDima09Dx0whrm7+BBKyE0yc1rQ+i43ofHRBtW4tDHHaEMYwzrym7cXn1ar2AxKvKXLteWuLSODg1ZNsYgRfUc0TWz831xQcR4GYkZweBxmBBHEmRz0x/Bm0AY6garpBofHfpgdfO47HebdbNizn98cdil5adjdy+wE=);lineShape=1;" parent="1" vertex="1">
          <mxGeometry x="627.8631549603633" y="876.8554605684617" width="2.5146227402378827" height="2.52233676160472" as="geometry" />
        </mxCell>
        <mxCell id="iphG7xv198WAp9QWndup-123" value="" style="shape=stencil(lZbdUttADIWfxrdnpNX+XlN4D2YIjYc0YUKg5e3R1mOIlkSd3vnv88pHR8c7yc3L9v55MwV6OR0PT5vf88NpO8mPKYR5v90c55MeTXI7yc3j4bj5eTy87h+W8+f7/mQ/+nV462/4s3CNUEKnAr0vV2JCan+v3C3Abt6fAxmlGCAJWnWAhsoGyIKaXSCJAUoEeyUltGyAqis4QG2IFmiMFh1AVbIltYLE14FCyFYlJgLRdSITJNolGtiRKRGq7ZzqQE4jooBtI2oFO4BUkAVK84EMsrrmBhIHKGMjUkV1VIphXCGqW5zO6W1pFggITklaQK4G0CKzs0KuaMkCGSE53lARrZlU6OB8dG+TXUFbGfyBoGFG6V8zykPjCLFcB87c/OkNWoPh8hI6MBbQofJa3UdysGtbX3FZJh36YUg1GJySeqzYkr6i53KrBeXbjFYnBjQa6wBofHozmhCHoVZZHTN1QP4HkDima09Dx0whrm7+BBKyE0yc1rQ+i43ofHRBtW4tDHHaEMYwzrym7cXn1ar2AxKvKXLteWuLSODg1ZNsYgRfUc0TWz831xQcR4GYkZweBxmBBHEmRz0x/Bm0AY6garpBofHfpgdfO47HebdbNizn98cdil5adjdy+wE=);lineShape=1;" parent="1" vertex="1">
          <mxGeometry x="574.8631549603633" y="831.8554605684617" width="2.5146227402378827" height="2.52233676160472" as="geometry" />
        </mxCell>
        <mxCell id="iphG7xv198WAp9QWndup-124" value="" style="shape=stencil(lZbdUttADIWfxrdnpNX+XlN4D2YIjYc0YUKg5e3R1mOIlkSd3vnv88pHR8c7yc3L9v55MwV6OR0PT5vf88NpO8mPKYR5v90c55MeTXI7yc3j4bj5eTy87h+W8+f7/mQ/+nV462/4s3CNUEKnAr0vV2JCan+v3C3Abt6fAxmlGCAJWnWAhsoGyIKaXSCJAUoEeyUltGyAqis4QG2IFmiMFh1AVbIltYLE14FCyFYlJgLRdSITJNolGtiRKRGq7ZzqQE4jooBtI2oFO4BUkAVK84EMsrrmBhIHKGMjUkV1VIphXCGqW5zO6W1pFggITklaQK4G0CKzs0KuaMkCGSE53lARrZlU6OB8dG+TXUFbGfyBoGFG6V8zykPjCLFcB87c/OkNWoPh8hI6MBbQofJa3UdysGtbX3FZJh36YUg1GJySeqzYkr6i53KrBeXbjFYnBjQa6wBofHozmhCHoVZZHTN1QP4HkDima09Dx0whrm7+BBKyE0yc1rQ+i43ofHRBtW4tDHHaEMYwzrym7cXn1ar2AxKvKXLteWuLSODg1ZNsYgRfUc0TWz831xQcR4GYkZweBxmBBHEmRz0x/Bm0AY6garpBofHfpgdfO47HebdbNizn98cdil5adjdy+wE=);lineShape=1;" parent="1" vertex="1">
          <mxGeometry x="574.8631549603633" y="831.8554605684617" width="2.5146227402378827" height="2.52233676160472" as="geometry" />
        </mxCell>
        <mxCell id="iphG7xv198WAp9QWndup-125" value="" style="shape=stencil(lZbLbhsxDEW/ZrYEKeq5TtP/CBCnHtS1A8dpm78PpwOlFj29RXZjmUciLx/SpHcv+4fn3RT45XI+fd/9mh8v+0m/TCHMx/3uPF/sa9L7Se+eTufdt/Pp9fi4/n5+WCyXrx+nn8sOv1cuZoppoQK/rSuFRP8sfF3tD/Pxyj5HimGw10Zc/g20SkkHoBYqABBmYh6IxpQDOKJ1lz8ApSQAyMRjELYiEQBMrY5ApQBkqpFSHoHWVzaBUijKAFzpsE0wKfsjYgOpU2rJByHghGSZdUCiBoJIpmvziVB0QqJ4k+qIgEIcfTUhXTNTdUDqTm4D2SeiKkx1UZJRpRpIKqgNS1zxAIMYLEQVD1TUc+axC9rqEdW3iehiyFRBDFZqxcXQKCcIZNdBASbOXAqullKXYRsIPtO2RQbAEuIoqzkZAFAaVfUA6ocSugNXAJp92frLnVChrFbe0amUqYBMW4t6lSIs708Dwap/HK7RhgAAmMo4A0RgCLfXA0Wgqd0dY6XaBQf631I2Du7Uh+C2PL1NPq5DElARwl4coQy0kdTvpW7PsGuWaLOzZ1DSIZP6/dGlo9IHz5U/IFeaqYmPF+wfhaR4PYH/8eY5EqmB7H72ufN/e/v4+7Z6mg+H9Wl2/b9/i9nS+o7T+3c=);lineShape=1;" parent="1" vertex="1">
          <mxGeometry x="597.3116673584946" y="787.3164157959488" width="2.9194849366995186" height="7.242258127411787" as="geometry" />
        </mxCell>
        <mxCell id="iphG7xv198WAp9QWndup-126" value="" style="shape=stencil(lZbdUttADIWfxrdnpNX+XlN4D2YIjYc0YUKg5e3R1mOIlkSd3vnv88pHR8c7yc3L9v55MwV6OR0PT5vf88NpO8mPKYR5v90c55MeTXI7yc3j4bj5eTy87h+W8+f7/mQ/+nV462/4s3CNUEKnAr0vV2JCan+v3C3Abt6fAxmlGCAJWnWAhsoGyIKaXSCJAUoEeyUltGyAqis4QG2IFmiMFh1AVbIltYLE14FCyFYlJgLRdSITJNolGtiRKRGq7ZzqQE4jooBtI2oFO4BUkAVK84EMsrrmBhIHKGMjUkV1VIphXCGqW5zO6W1pFggITklaQK4G0CKzs0KuaMkCGSE53lARrZlU6OB8dG+TXUFbGfyBoGFG6V8zykPjCLFcB87c/OkNWoPh8hI6MBbQofJa3UdysGtbX3FZJh36YUg1GJySeqzYkr6i53KrBeXbjFYnBjQa6wBofHozmhCHoVZZHTN1QP4HkDima09Dx0whrm7+BBKyE0yc1rQ+i43ofHRBtW4tDHHaEMYwzrym7cXn1ar2AxKvKXLteWuLSODg1ZNsYgRfUc0TWz831xQcR4GYkZweBxmBBHEmRz0x/Bm0AY6garpBofHfpgdfO47HebdbNizn98cdil5adjdy+wE=);lineShape=1;" parent="1" vertex="1">
          <mxGeometry x="584.8631549603633" y="892.8554605684617" width="2.5146227402378827" height="2.52233676160472" as="geometry" />
        </mxCell>
        <mxCell id="iphG7xv198WAp9QWndup-130" value="" style="shape=stencil(lVrJblw3EPyauRIkm1ufHec/DFiOhCiSISvb36eZATmPxXll6DYaVXPppXrhXOTTj8cv3x8u0f94f3v9/eHvp6/vjxf55RLj08vjw9vTu326yOeLfPr2+vbw29vrny9fr39//9KR/dMfr3/1Ff65yqm66rtU9P9ev/Guyv9f/HrFPz+9HPHF1bbgg+t/neLDWO6GV3+Ob9WFdf3oUib45CQBvjG8d1oWvLik5/haneiCtw0LwSfn1/XzWOA+3tS3rl9cJvos6vyKr64mgq8uhgVvCzB8Hteb9vJUQUVcBocwCzOB4FpcBWwJotLiXYAjZReIjnJDnw7mtYEImJLyKtCcsB3ydgd1StwuJ3Qji4PCdhDnV7t1RyWBk229VUvd89gOHi1triRES0mH1qeA0h1S3WItOCF3SMW11ZdEXCSukTY7SOYCaUTLFKgusTuIKyCgQ9H3BYyvVgH7xrMdggurpe2QqZ0L2AHqemlTtK9EoA2KngJKSV6KK3UlsegyMZxpPawRZxES2ZFmyE+BSllDTIlriBotVHYkj3cwpookRM2Z02oH48JK7BCbC0DdjV7a4suv7l3tDkygDM+ZAnYHcmkLeRTIg57vCyRUqyU8JSRgLBTWfG4Z1bMdIia4FrlAQNdowrVkKX1Va8vDMmcCCXYoTkg8mAAkXStTIrmDZYOyqrWZs5C0awLgSybQyKUtQYF7N3WZ7dDQ+dTyKtuhjsLrIMBKDUuybWU+5XRvAlArmYASbrW8D96qkZJAMPdevVWF0r2VIrhD4oaLGA8m0IgvhamTKZBpgXWrv6ZAcYEQmfmeIJ7xWHO6coZWGg0NK27Ds/Xr0MfEN+p45kYB8Y0VlM6DQpW2JFuuMjwzQLqDp5lnOMwB34hXm33XSA7ejyudCEjEDZQYwCO3dDxR0MZ2/QIkJ3hMOoYv9Dy7wTJxOL8FsdWd/L67Q5CA8SOnHvAswPwWAEozmh/l3BFPAsBvAazjRif4mjc8PQ/ytFKe9qNjPwYM4cR7+EwCzI/wOAYYXb9u+uQBVrb1WbPmRwf+gYCs2wb0wnEzsNILQ+PVL0wv4DcDVx7wu8F4AAfEJx7Am34i1U/Y8Nyh40ZYPGDSHsA0ID+Gj07h/I3WBDLy2wFfyPrpToZMJADyGDUc8JEQutULcJ5Kz1OxCze8J+s37LSsQmHDkEnHB7wn/jOj71BisfbVSixUaBoceVbEIaUkXkxHnJL1QpR1EDKq+WOpy+rKhKzVi2l2pLzV94F6hZXrmCeNKQkN3WkIOI/2lmMV6E0NO1JDJrK2iXYQDbVkAmw+awK6tX6V7aDbHQqtzkwAhl4mwEa0nY5WO7RE08edBlmoWq0FhwFqm0PbsyY/wxhBuYBgC14rHasZ54FaKx9vGumhgNEya/LL4IjDdIaxhtEe0Gqp1NLGew1mWLz1ky3xl0gtLQHvUGZtcjaHg9o9c6qXhJbO3Pmk4B1ypFQpFScbSenkWxTLhVRoiCaPd0hpPDGcjWghRO0bVlAlwYrHDsmejfoBYPJd6RtHmvPVKZBoUWs6ga5RuC+lORifAp5ya2qjyh8CfbTAyhjFyYDFIDtSDlgIRO58fWy93qHXZiTisozp5xQIdJaYjYXg6YinrLwVV5b1GmGNbLXaSmQ9EbO3JsU3DqsNCnvzC5hQgtD6tgh6qxVErJopCTOQUs8oBZmyUSouDZVaaUDXgGO+TKfeVcYwdhLA6Lnv4yvaTChftK0lj7RhsIQPD5aRNkj9VR0sTEfqVgnCqxcvDXV7MPL0FfvWX97wrDDsAyVc/yd4GIl4+ganGxP5MZo+w8OIw49HvFM8nofZS7cOxtNnzcOA4iYgbEZ8ZwM20lHFltbTkd1twnjDF24wmAF5Wg52A6MDsRf+D//M5ad4+3D7Tc23p+fn609yjv/H3+DYV9ff78jn/wA=);lineShape=1;" parent="1" vertex="1">
          <mxGeometry x="573.9380896422108" y="885.4356216859301" width="157.6273905827943" height="153.2133118672482" as="geometry" />
        </mxCell>
        <mxCell id="iphG7xv198WAp9QWndup-131" value="" style="shape=stencil(lVbZbhsxDPyafSUkUudzmv5HgDi1UdcOHKfH35dbQ47J9U7QN3nNEc8ZapKHt+3T62bi8HY+Hb9vfu2ez9tJvkzMu8N2c9qd9TTJ4yQPL8fT5tvp+H54vvx+fZot59OP48/5ht8XXI5U8ozi8OfypVPu/z58vdjvd4cbe8mUgrFnoVLXAdwoJgOQRi1DgLABaIxN1gEpUO0GUCLluA7Q+3qxgEqlrAN6pmyTbpVaAADNwXponUoCgD5qcm0DTnoG2Cr1RJFhSFwtoJCgHDKJAzTsIVJyIfUxLHcBrYwUByCGQAEhmEL3LhroXNXGNg9AHmqi4AB1NP8+YEkgnRZQphrGrF0BMlqz5oHt9PVAHXC06n22Ea1RB4SoZfDlZr4ZcLQp5WzntJcRhNRUNhwg4/kOFKP3wCAHHX9ZcBTOt/Y1L6rUIOWym+9IATTuZppvWi1IaDSCxTAVlESh5EiqaYGYOnvOzYQAyqRFcYI/Uw6UqcmCEB2Pa19QrsMq1UzRMahR+ASwkDIE0CXodpAKSQCEiIWCLWtR7UM7iLLdirqzIogo+BplHjes2duuJeUHsGdit6WV0KDLxYsYV0og/iiUrHLHBpeD3hesB4EbVJ8NzTpgSH+JJG75DNW8b5+IrX2gBCZCqle8MEZk9RWTvT2IP8kQqw97AfGkQj25fJF4pe6VhYcirz2qnE4IJgCPdl4nlDrINwtFe79KHxhQvb/a+Nug0Fr8//UQ/txeDx+v7pfdfn95tN/+71/p+unywpfHvw==);lineShape=1;" parent="1" vertex="1">
          <mxGeometry x="571.6156213813679" y="1031.1715155243799" width="6.058004540524962" height="12.528596638850331" as="geometry" />
        </mxCell>
        <mxCell id="iphG7xv198WAp9QWndup-132" value="" style="shape=stencil(7VrLchw3DPyavaJIgODj7Dj/4SrL0VYUySXLSfz3xmSLnCU421u65eDbaoSeIfFoNDFzkg/fHj99fThx+Pb2+vLnwz/nz2+PJ/ntxHx+fnx4Pb/Zr5N8PMmHLy+vD3+8vnx//nz5++unzXL79dfL39sd/r3gWqPCG4rDj3Gltf+u/H4BPJ2frwGVUpoBlWoCgELsAIUEAZRymwFKKQKALHtgqggQScoEqI0yANRKRWaAUhUAUGoOECmDTVehMHupFEoKAIF43kMR6CW7XwkTILe+yGOAksx7yJlyAQChWGeAUK4AECm6JdkVsKRsqZYngFpkMgBkEp0BdiUAgJC6J9geQBxyIHGAQAUAbAFt9lIqpKDibAEaZ0AiAZFOFtd5ScncCpaUMqU5l6RSAHFIFum5REWJQRxSoDBHWqxEQRyk+HqQQJkBwHwykwBbaoCKk9jDNAAFJh834rkeWGFNc6Yyu5UTMdi0/dvlEjMVkBocqbknRGLgpbjQ/XYFpEY0FpqXFGt39DFgJMIAWMKDbI3Sc3MAFPaHGLsTB0CoAl5qvmNFpgzCUDq1D/sImTX7bhIDJZBI6lmvkaJiozDXmpEgKgTfFyxegIPZ813t+GPnU63vMme/dgFbDV1J7OaIGe3uMzFaoFBgRwse9gl2j2WzlsoFLD/6pm/Vwyj1qam3v3N/t/4KWTf2wruyLzi4rnQH5d2wL83bIxll9tHbNxyv2d4SJMD162If4XrSen+4X1nWj0ox+oZh9gr3G4u3DzD/o1uPQoEWKTh7hvahV8dOVEjOhS5YhyKlAM0dUaWuQm6Y59k89Oq8wWsuVkOB3DB3bc4yB0R2NJDdPMHFOOltkQBNl71uiLBs2ZehcTq++7xVgZzMPeZ7mAL0jPqoKtJIlNiZo8MkrzlTkT7qQdzNMzR3ItXkGtJGnbx2R2bIHtXpTZjAB+aompbFRBjV2A/5ewJjz0RfTYzD5KsJ50xaahUmsPq7I73IB8QBzd2xwLoKXPtSfAwd6UpbYFTZd0yBpyb2DdMOFHAxyVcT5hl3wkqwe7/TfGl+cqc8nOjWLqZuSQ83hLpTq+4EvR0xoJL4pRR/KcX/s1IMS/40qM2q6yYKT2LB+2dTliDflnFQgyd4C86cbvneMXK+uy0eUok7pCqULEunVaiKuT97N0ftRzxrZihEkx+eZHgCVu/IAieJ2auzClmqdDG2RxWNu0aKX81N0KhiG/w41olwNmuk7QcEAr25TZ4cIMHgWhk5IjHij6hw26LtC5z+bLJvjsFW6niIuHKVglq0KNf5CVuKo4y2sM4pbVmbgFsl+oLctABIpG2Y656QoQqT4mdqlqpoZpdGf7iaLyOSSOKTTwSq1JQ7i1zNyNE7Ix0tZQBqb+PHAPHUkhh2MbUDuXsxoLDi8hhkDkCF3Li98Jk3rbFPX48B2T9BEyygXL200QzTuyzjYsVuLdLfEA1OHXLhGKB+wJwT7N6ldDE5AAVO4Wvw9bDtCr9O9ESvcFBbs1cIpfWRyDGgLrNagS9oWuwjkgEoMPma+Dl8w0TW1KvMhul+exE9b9puEdCL49pZaAAyZL7WPPPZMxN6vd78sd8Ail5uNC9HGj4abIDlCageNsAcOHMD6usxrPKuwl0fI9Cbr/0rhQHACngDFA+QO44VD4AJ3hb50/BnCG1J8HYvEsUdMwMea77/8477APuxf03y5fz0dPkY5fr//usTu3T5ckU+/gQ=);lineShape=1;" parent="1" vertex="1">
          <mxGeometry x="247.40463993056915" y="822.9139987698788" width="232.16083778691132" height="44.65038386844003" as="geometry" />
        </mxCell>
        <mxCell id="iphG7xv198WAp9QWndup-133" value="" style="shape=stencil(lZbdUttADIWfxrdnpNX+XlN4D2YIjYc0YUKg5e3R1mOIlkSd3vnv88pHR8c7yc3L9v55MwV6OR0PT5vf88NpO8mPKYR5v90c55MeTXI7yc3j4bj5eTy87h+W8+f7/mQ/+nV462/4s3CNUEKnAr0vV2JCan+v3C3Abt6fAxmlGCAJWnWAhsoGyIKaXSCJAUoEeyUltGyAqis4QG2IFmiMFh1AVbIltYLE14FCyFYlJgLRdSITJNolGtiRKRGq7ZzqQE4jooBtI2oFO4BUkAVK84EMsrrmBhIHKGMjUkV1VIphXCGqW5zO6W1pFggITklaQK4G0CKzs0KuaMkCGSE53lARrZlU6OB8dG+TXUFbGfyBoGFG6V8zykPjCLFcB87c/OkNWoPh8hI6MBbQofJa3UdysGtbX3FZJh36YUg1GJySeqzYkr6i53KrBeXbjFYnBjQa6wBofHozmhCHoVZZHTN1QP4HkDima09Dx0whrm7+BBKyE0yc1rQ+i43ofHRBtW4tDHHaEMYwzrym7cXn1ar2AxKvKXLteWuLSODg1ZNsYgRfUc0TWz831xQcR4GYkZweBxmBBHEmRz0x/Bm0AY6garpBofHfpgdfO47HebdbNizn98cdil5adjdy+wE=);lineShape=1;" parent="1" vertex="1">
          <mxGeometry x="439.8631549603633" y="1299.8554605684617" width="2.5146227402378827" height="2.5223367616044925" as="geometry" />
        </mxCell>
      </root>
    </mxGraphModel>
  </diagram>
</mxfile>
